<svg width="80" height="80" viewBox="0 0 80 80" fill="none" xmlns="http://www.w3.org/2000/svg">
<path d="M45.6355 49.7776V16.7617H42.7455V49.7776C38.8441 50.4953 35.8096 53.9405 35.8096 57.9598C35.8096 62.5533 39.5665 66.2855 44.1905 66.2855C48.8145 66.2855 52.5715 62.5533 52.5715 57.9598C52.5715 53.9405 49.537 50.4953 45.6355 49.7776ZM44.1905 63.5581C41.156 63.5581 38.6996 61.1178 38.6996 58.1033C38.6996 55.0888 41.156 52.6485 44.1905 52.6485C47.225 52.6485 49.6815 55.0888 49.6815 58.1033C49.6815 61.1178 47.225 63.5581 44.1905 63.5581Z" fill="#DFDFDF"/>
<path d="M44.1904 6.0957C39.5359 6.0957 35.7541 9.84687 35.7541 14.4637V44.473C31.0995 47.3585 28.1904 52.4082 28.1904 58.0349C28.1904 66.8357 35.3177 73.9052 44.1904 73.9052C53.0632 73.9052 60.1904 66.8357 60.1904 58.0349C60.1904 52.5524 57.2813 47.3585 52.6268 44.473V42.4532H58.7359V39.5676H52.6268V34.2294H58.7359V31.3439H52.6268V26.0057H58.7359V23.1202H52.6268V17.9263H58.7359V15.0408H52.6268V14.4637C52.6268 9.84687 48.845 6.0957 44.1904 6.0957ZM57.2813 58.0349C57.2813 65.2487 51.4632 71.0197 44.1904 71.0197C36.9177 71.0197 31.0995 65.2487 31.0995 58.0349C31.0995 53.2738 33.7177 48.9456 37.9359 46.6371L38.6632 46.2043V14.4637C38.6632 11.4339 41.1359 8.98121 44.1904 8.98121C47.245 8.98121 49.7177 11.4339 49.7177 14.4637V46.2043L50.445 46.6371C54.6632 48.9456 57.2813 53.2738 57.2813 58.0349Z" fill="#DFDFDF"/>
<path d="M24.3989 12.9521V17.6849H19.8096V20.5533H24.3989V25.1426H27.2673V20.5533H32V17.6849H27.2673V12.9521H24.3989Z" fill="#DFDFDF"/>
</svg>
