<svg width="80" height="80" viewBox="0 0 80 80" fill="none" xmlns="http://www.w3.org/2000/svg">
<path fill-rule="evenodd" clip-rule="evenodd" d="M70.8569 61.7873C70.8569 63.5865 70.1501 65.312 68.8921 66.5843C67.6341 67.8565 65.9279 68.5712 64.1488 68.5712H15.8507C14.9697 68.5712 14.0974 68.3957 13.2836 68.0548C12.4697 67.7139 11.7302 67.2142 11.1073 66.5843C9.84932 65.312 9.14258 63.5865 9.14258 61.7873V22.441C9.14258 21.0017 9.70797 19.6213 10.7144 18.6035C11.7208 17.5857 13.0858 17.014 14.509 17.014H41.5708L52.4365 13.0332C52.7669 12.9115 53.1315 12.9274 53.4504 13.0772C53.7693 13.227 54.0164 13.4985 54.1377 13.8323L55.2821 17.014H60.1239C61.5472 17.014 62.9122 17.5857 63.9186 18.6035C64.925 19.6213 65.4904 21.0017 65.4904 22.441V25.1546C66.9137 25.1546 68.2787 25.7264 69.2851 26.7441C70.2915 27.7619 70.8569 29.1423 70.8569 30.5816V61.7873ZM14.509 19.7275C13.7974 19.7275 13.1149 20.0134 12.6117 20.5223C12.1085 21.0312 11.8258 21.7214 11.8258 22.441C11.8258 23.1607 12.1085 23.8509 12.6117 24.3598C13.1149 24.8687 13.7974 25.1546 14.509 25.1546H19.3845C19.4019 25.1478 19.4126 25.1329 19.4301 25.1261L34.1637 19.7275H14.509ZM53.5205 19.9731L52.0957 16.0059H52.0944L49.3427 17.014H49.3468L41.9491 19.7275H41.9357L27.1256 25.1546H55.3827L53.5205 19.9731ZM62.8072 22.441C62.8072 21.7214 62.5245 21.0312 62.0213 20.5223C61.5181 20.0134 60.8356 19.7275 60.1239 19.7275H56.2561L58.2068 25.1546H62.8072V22.441ZM65.4904 27.8681H14.509C13.527 27.8681 12.6174 27.5818 11.8258 27.1151V61.7873C11.8258 62.8669 12.2499 63.9022 13.0047 64.6655C13.7595 65.4288 14.7832 65.8577 15.8507 65.8577H64.1488C65.2162 65.8577 66.24 65.4288 66.9948 64.6655C67.7496 63.9022 68.1736 62.8669 68.1736 61.7873V52.29H62.8072C61.3839 52.29 60.0189 51.7182 59.0125 50.7004C58.0061 49.6826 57.4407 48.3022 57.4407 46.8629C57.4407 45.4235 58.0061 44.0431 59.0125 43.0254C60.0189 42.0076 61.3839 41.4358 62.8072 41.4358H68.1736V30.5816C68.1736 29.862 67.8909 29.1718 67.3877 28.6629C66.8845 28.154 66.202 27.8681 65.4904 27.8681ZM68.1736 49.5764V44.1493H62.8072C62.0955 44.1493 61.413 44.4352 60.9098 44.9441C60.4066 45.453 60.1239 46.1432 60.1239 46.8629C60.1239 47.5826 60.4066 48.2728 60.9098 48.7816C61.413 49.2905 62.0955 49.5764 62.8072 49.5764H68.1736ZM62.8072 45.5061H65.4904V48.2197H62.8072V45.5061Z" fill="#DFDFDF"/>
</svg>
