<svg width="80" height="80" viewBox="0 0 80 80" fill="none" xmlns="http://www.w3.org/2000/svg">
<path d="M40 72.501H56.0225C58.35 72.501 60.37 70.8935 60.895 68.626L67.5 40.001L58.75 42.501L52.5 40.001L46.25 42.501L40 40.001L33.75 42.501L27.5 40.001L21.25 42.501L12.5 40.001L19.105 68.626C19.63 70.8935 21.65 72.501 23.9775 72.501H40Z" stroke="white" stroke-width="3" stroke-miterlimit="10" stroke-linecap="round" stroke-linejoin="round"/>
<path d="M45.325 20.2764C56.575 21.5014 65 26.9764 65 40.0014C65 40.1764 65 40.3764 65 40.5514M15 40.5514C15 40.3764 15 40.1764 15 40.0014C15 26.9764 23.425 21.5014 34.675 20.2764" stroke="white" stroke-width="3" stroke-miterlimit="10" stroke-linecap="round" stroke-linejoin="round"/>
<path d="M33.75 42.501L36.25 72.501" stroke="white" stroke-width="3" stroke-miterlimit="10" stroke-linecap="round" stroke-linejoin="round"/>
<path d="M21.25 42.501L27.5 72.501" stroke="white" stroke-width="3" stroke-miterlimit="10" stroke-linecap="round" stroke-linejoin="round"/>
<path d="M46.25 42.501L43.75 72.501" stroke="white" stroke-width="3" stroke-miterlimit="10" stroke-linecap="round" stroke-linejoin="round"/>
<path d="M58.75 42.501L52.5 72.501" stroke="white" stroke-width="3" stroke-miterlimit="10" stroke-linecap="round" stroke-linejoin="round"/>
<path d="M40 22.501C44.1421 22.501 47.5 19.1431 47.5 15.001C47.5 10.8588 44.1421 7.50098 40 7.50098C35.8579 7.50098 32.5 10.8588 32.5 15.001C32.5 19.1431 35.8579 22.501 40 22.501Z" stroke="white" stroke-width="3" stroke-miterlimit="10" stroke-linecap="round" stroke-linejoin="round"/>
<path d="M51.0078 31.6936L51.8928 30.8086" stroke="white" stroke-width="3" stroke-miterlimit="10" stroke-linecap="round" stroke-linejoin="round"/>
<path d="M28.9924 31.6936L28.1074 30.8086" stroke="white" stroke-width="3" stroke-miterlimit="10" stroke-linecap="round" stroke-linejoin="round"/>
<path d="M41.4924 31.6936L40.6074 30.8086" stroke="white" stroke-width="3" stroke-miterlimit="10" stroke-linecap="round" stroke-linejoin="round"/>
</svg>
