<svg width="94" height="76" viewBox="0 0 94 76" fill="none" xmlns="http://www.w3.org/2000/svg">
<g clip-path="url(#clip0_404_273)">
<path d="M23.3 76.0014C18.9 76.0014 15.3 75.1014 12.5 73.3014C9.7 71.5014 7.4 69.2014 5.6 66.4014C3.4 63.2014 2 59.7014 1.4 55.9014C0.8 52.1014 0.5 49.0014 0.5 46.6014C0.5 36.8014 3 27.9014 8 19.9014C13 11.9014 20.8 5.40138 31.4 0.401367L34.1 5.80137C27.9 8.40138 22.5 12.5014 17.9 18.1014C13.5 23.7014 11.3 29.4014 11.3 35.2014C11.3 37.6014 11.6 39.7014 12.2 41.5014C15.4 38.9014 19.1 37.6014 23.3 37.6014C28.5 37.6014 33 39.3014 36.8 42.7014C40.6 46.1014 42.5 50.8014 42.5 56.8014C42.5 62.4014 40.6 67.0014 36.8 70.6014C33 74.2014 28.5 76.0014 23.3 76.0014ZM74.3 76.0014C69.9 76.0014 66.3 75.1014 63.5 73.3014C60.7 71.5014 58.4 69.2014 56.6 66.4014C54.4 63.2014 53 59.7014 52.4 55.9014C51.8 52.1014 51.5 49.0014 51.5 46.6014C51.5 36.8014 54 27.9014 59 19.9014C64 11.9014 71.8 5.40138 82.4 0.401367L85.1 5.80137C78.9 8.40138 73.5 12.5014 68.9 18.1014C64.5 23.7014 62.3 29.4014 62.3 35.2014C62.3 37.6014 62.6 39.7014 63.2 41.5014C66.4 38.9014 70.1 37.6014 74.3 37.6014C79.5 37.6014 84 39.3014 87.8 42.7014C91.6 46.1014 93.5 50.8014 93.5 56.8014C93.5 62.4014 91.6 67.0014 87.8 70.6014C84 74.2014 79.5 76.0014 74.3 76.0014Z" fill="#F4F2EF"/>
</g>
<defs>
<clipPath id="clip0_404_273">
<rect width="94" height="76.001" fill="white"/>
</clipPath>
</defs>
</svg>
