<svg width="20" height="21" viewBox="0 0 20 21" fill="none" xmlns="http://www.w3.org/2000/svg">
<g clip-path="url(#clip0_317_660)">
<path d="M10.03 0.50002C12.29 0.51004 14.45 1.41004 16.03 2.99004C17.62 4.58004 18.51 6.73004 18.5001 8.96004V9.01004C18.44 12.04 16.74 14.83 14.62 17.01C13.42 18.24 12.09 19.33 10.64 20.25C10.25 20.58 9.68 20.58 9.29 20.25C7.14 18.85 5.24 17.09 3.7 15.04C2.35 13.26 1.58 11.12 1.5 8.89004C1.52 4.24004 5.34 0.49004 10.03 0.50002ZM10.03 6.43004C8.54 6.43004 7.34 7.62004 7.34 9.10004C7.34 10.561 8.52 11.74 10 11.76H10.03C10.74 11.76 11.42 11.49 11.92 11C12.44 10.49 12.731 9.81104 12.731 9.10004C12.731 7.62004 11.52 6.43004 10.03 6.43004Z" fill="url(#paint0_linear_317_660)"/>
</g>
<defs>
<linearGradient id="paint0_linear_317_660" x1="10.0001" y1="0.5" x2="10.0001" y2="20.4975" gradientUnits="userSpaceOnUse">
<stop stop-color="#FFDFE7"/>
<stop offset="1" stop-color="#D71B4A"/>
</linearGradient>
<clipPath id="clip0_317_660">
<rect width="20" height="20" fill="white" transform="translate(0 0.5)"/>
</clipPath>
</defs>
</svg>
