<svg width="59" height="60" viewBox="0 0 59 60" fill="none" xmlns="http://www.w3.org/2000/svg">
<path d="M52.0506 6.52283C51.8909 5.75966 51.1429 5.2704 50.3797 5.42993C43.4102 6.90166 36.1427 5.41545 30.3105 1.32568C29.8244 0.983888 29.1759 0.983888 28.6898 1.32568C22.8578 5.41563 15.5901 6.902 8.62061 5.42993C8.52586 5.41011 8.42938 5.40012 8.33257 5.40012C7.55286 5.39961 6.92044 6.03116 6.91992 6.81087V29.4435C6.92457 37.7311 10.9144 45.5109 17.6422 50.3506L28.6788 58.2642C28.9181 58.4365 29.2054 58.5291 29.5002 58.5288C29.7949 58.5291 30.0823 58.4366 30.3216 58.2644L41.3581 50.3506C48.0859 45.5109 52.0758 37.7311 52.0804 29.4435V6.81087C52.0804 6.71405 52.0704 6.61758 52.0506 6.52283ZM49.2579 29.4435C49.2548 36.8215 45.7039 43.7479 39.7153 48.0573L29.5002 55.381L19.285 48.0573C13.2965 43.7477 9.74555 36.8215 9.74245 29.4435V8.49777C16.6344 9.52728 23.6646 7.9925 29.5002 4.18404C35.3363 7.99146 42.3661 9.52625 49.2579 8.49777V29.4435Z" fill="#D71B4A"/>
<path d="M32.5902 25.735C33.4516 25.735 34.1526 25.0436 34.1526 24.1941C34.1526 23.3441 33.4516 22.6533 32.5902 22.6533C31.7287 22.6533 31.0277 23.3446 31.0277 24.1941C31.0277 25.0442 31.7287 25.735 32.5902 25.735ZM32.5902 23.7156C32.8644 23.7156 33.0881 23.9301 33.0881 24.1947C33.0881 24.4587 32.865 24.6732 32.5902 24.6732C32.3154 24.6732 32.0923 24.4587 32.0923 24.1947C32.0923 23.9307 32.3159 23.7156 32.5902 23.7156ZM33.1051 30.2277C31.6753 30.2277 30.5122 31.3719 30.5122 32.7784C30.5122 34.185 31.6753 35.3292 33.1051 35.3292C34.5344 35.3292 35.6974 34.185 35.6974 32.7784C35.6974 31.3719 34.535 30.2277 33.1051 30.2277ZM33.1051 34.2675C32.2625 34.2675 31.5768 33.5995 31.5768 32.7784C31.5768 31.9574 32.2625 31.2894 33.1051 31.2894C33.9478 31.2894 34.6334 31.9574 34.6334 32.7784C34.6334 33.5995 33.9478 34.2675 33.1051 34.2675ZM25.8938 25.6832C24.7484 25.6832 23.8164 26.601 23.8164 27.7293C23.8164 28.8576 24.7484 29.7753 25.8938 29.7753C27.0397 29.7753 27.9711 28.8576 27.9711 27.7293C27.9711 26.601 27.0391 25.6832 25.8938 25.6832ZM25.8938 28.713C25.3356 28.713 24.881 28.2715 24.881 27.7293C24.881 27.1864 25.335 26.7455 25.8938 26.7455C26.4525 26.7455 26.9071 27.1864 26.9071 27.7293C26.9066 28.2709 26.452 28.713 25.8938 28.713Z" fill="#D71B4A"/>
<path d="M44.4378 27.1976C43.9155 27.1976 43.4637 27.5703 43.1781 28.2075H40.2137C39.9548 26.4619 39.2606 24.8186 38.1835 23.4047L39.3562 22.2554C39.383 22.2292 39.404 22.1973 39.4285 22.1689C39.5206 22.1854 39.6123 22.2002 39.6987 22.2002C39.9878 22.2002 40.2387 22.1063 40.427 21.9219C40.6165 21.7364 40.7167 21.4838 40.7167 21.1908C40.7167 20.6815 40.4043 20.0716 39.8808 19.5589C39.0325 18.7265 38.0293 18.5012 37.4962 19.0241C37.2493 19.2665 37.1633 19.6135 37.2356 20.0101C37.21 20.0318 37.1804 20.05 37.1565 20.0733L35.9724 21.2346C34.5249 20.1723 32.8459 19.4889 31.0615 19.2363V16.8562C31.7119 16.5752 32.092 16.1285 32.092 15.6102C32.0925 14.7322 30.9779 14.0693 29.4996 14.0693C28.0214 14.0693 26.9068 14.7322 26.9068 15.6102C26.9068 16.1285 27.2863 16.5752 27.9372 16.8562V19.2363C26.1517 19.4889 24.4715 20.1729 23.0263 21.2346L21.8417 20.0727C21.8178 20.0494 21.7887 20.0318 21.7631 20.0101C21.8354 19.6135 21.7495 19.2665 21.5025 19.0235C20.9694 18.5012 19.9674 18.7265 19.1185 19.5589C18.5956 20.0716 18.2826 20.6815 18.2826 21.1908C18.2826 21.4838 18.3833 21.7364 18.5723 21.9219C18.7606 22.1063 19.0115 22.2002 19.3006 22.2002C19.3865 22.2002 19.4786 22.1854 19.5708 22.1689C19.5959 22.1973 19.6163 22.2292 19.6437 22.2554L20.8163 23.4047C19.7381 24.8209 19.0445 26.463 18.7862 28.2075H15.8212C15.5356 27.5703 15.0838 27.1976 14.5615 27.1976C13.671 27.1976 12.999 28.294 12.999 29.7483C12.999 31.2027 13.671 32.2991 14.5615 32.2991C15.0838 32.2991 15.5356 31.9264 15.8212 31.2892H18.7856C19.0445 33.0354 19.7387 34.678 20.8152 36.092L19.5538 37.3244C19.1589 37.2567 18.8112 37.3398 18.5711 37.5753C18.3816 37.7608 18.2815 38.014 18.2821 38.307C18.2821 38.8169 18.5944 39.4262 19.1173 39.9389C19.6607 40.4715 20.2673 40.7554 20.7714 40.7554C21.0553 40.7554 21.3062 40.6661 21.4957 40.48C21.7426 40.245 21.8343 39.8951 21.766 39.5031L23.0257 38.2638C24.4726 39.3261 26.1523 40.0089 27.9361 40.2621V43.1469C27.2857 43.4279 26.9056 43.8746 26.9056 44.3929C26.9068 45.2697 28.0214 45.9326 29.4996 45.9326C30.9779 45.9326 32.0925 45.2697 32.0925 44.3918C32.0925 43.8734 31.713 43.4268 31.0621 43.1457V40.261C32.8476 40.0083 34.5284 39.3244 35.973 38.2627L37.0427 39.3113C36.9727 39.6982 37.0621 40.047 37.3033 40.2837C37.4956 40.4755 37.7511 40.5682 38.039 40.5682C38.5431 40.5682 39.1474 40.2843 39.6908 39.7517C40.2159 39.2368 40.5283 38.624 40.526 38.1125C40.5249 37.82 40.4236 37.5685 40.2364 37.3881C39.9901 37.1475 39.6413 37.0627 39.2475 37.1355L38.183 36.0926C39.2612 34.6769 39.9548 33.0342 40.2131 31.2897H43.1775C43.4632 31.9276 43.9149 32.2997 44.4373 32.2997C45.3277 32.2997 45.9997 31.2032 45.9997 29.7489C46.0003 28.294 45.3283 27.1976 44.4378 27.1976ZM37.9024 20.8317C37.9474 20.7879 38.0026 20.7515 38.0686 20.7242C38.0697 20.7236 38.0703 20.7225 38.072 20.7219C38.0731 20.7214 38.0743 20.7219 38.0754 20.7214C38.1044 20.7088 38.1244 20.6855 38.15 20.6684C38.183 20.6468 38.2188 20.6292 38.245 20.6013C38.2672 20.578 38.2791 20.549 38.2962 20.5228C38.3161 20.4921 38.3411 20.4636 38.3548 20.4295C38.3662 20.401 38.3662 20.3692 38.3724 20.339C38.3798 20.3026 38.3923 20.2679 38.3918 20.2303C38.3918 20.199 38.3787 20.1689 38.3724 20.1376C38.3656 20.1006 38.365 20.063 38.3497 20.0272C38.3491 20.0261 38.348 20.0255 38.3474 20.0238C38.3468 20.0226 38.3474 20.0215 38.3468 20.0204C38.3059 19.9276 38.2871 19.8571 38.2785 19.8076C38.4401 19.8303 38.7787 19.9663 39.1349 20.3162C39.4939 20.6679 39.6214 20.9837 39.6475 21.1344C39.594 21.1276 39.515 21.1088 39.4125 21.0645C39.3807 21.0514 39.3477 21.0519 39.3152 21.0445C39.2794 21.0366 39.2441 21.0229 39.2083 21.0224C39.1724 21.0224 39.1394 21.0343 39.1047 21.0411C39.0723 21.0474 39.0387 21.048 39.008 21.0599C38.9756 21.0724 38.95 21.0958 38.9209 21.1151C38.8925 21.1327 38.8612 21.1458 38.8362 21.1697C38.8111 21.1936 38.7963 21.2266 38.7758 21.2551C38.7559 21.2835 38.7303 21.3069 38.7161 21.3399C38.6888 21.4019 38.6529 21.4554 38.6091 21.498L37.4928 22.5922C37.2726 22.3544 37.0421 22.1279 36.8003 21.9123L37.9024 20.8317ZM20.2826 21.3399C20.2678 21.3051 20.2411 21.2807 20.22 21.2511C20.2007 21.2243 20.1865 21.1925 20.1626 21.1697C20.1318 21.1401 20.0937 21.1225 20.0573 21.1014C20.0345 21.0884 20.0158 21.0696 19.9913 21.0599C19.9509 21.044 19.9065 21.0411 19.8627 21.0354C19.8388 21.032 19.8155 21.0224 19.791 21.0224C19.7529 21.0224 19.7153 21.0372 19.6772 21.0463C19.6471 21.0531 19.6158 21.0525 19.5862 21.065C19.4764 21.1123 19.3939 21.1305 19.3501 21.1424C19.3728 20.995 19.4986 20.6747 19.8639 20.3168C20.2462 19.9419 20.6081 19.8121 20.7236 19.7865C20.7179 19.8349 20.6997 19.9145 20.6525 20.0215C20.6519 20.0226 20.6525 20.0238 20.6519 20.0244C20.6513 20.0261 20.6502 20.0266 20.6496 20.0278C20.6343 20.0636 20.6343 20.1006 20.6269 20.1382C20.6206 20.1689 20.6081 20.1996 20.6075 20.2309C20.6069 20.2685 20.6195 20.3032 20.6269 20.3396C20.6331 20.3697 20.6331 20.4016 20.6445 20.43C20.6582 20.4648 20.6832 20.4926 20.7031 20.5234C20.7202 20.5495 20.7321 20.5785 20.7543 20.6019C20.7805 20.6298 20.8163 20.6474 20.8493 20.669C20.8749 20.6861 20.8949 20.7088 20.9239 20.7219C20.9244 20.7225 20.9262 20.7219 20.9273 20.7225C20.9284 20.7231 20.929 20.7242 20.9307 20.7248C20.9961 20.7521 21.0519 20.7885 21.0963 20.8317L22.1984 21.9123C21.9554 22.1285 21.725 22.3549 21.5059 22.5922L20.3896 21.4986C20.3458 21.4554 20.3099 21.4019 20.2826 21.3399ZM19.8639 39.1804C19.506 38.8294 19.3779 38.5153 19.3518 38.3639C19.3967 38.3702 19.4587 38.3844 19.5367 38.414C19.5412 38.4157 19.5464 38.4146 19.5503 38.4163C19.6078 38.4368 19.6676 38.4493 19.7273 38.4493C19.7301 38.4493 19.7324 38.4476 19.7353 38.4476C19.8121 38.4464 19.886 38.4282 19.9549 38.3958C19.9725 38.3878 19.9856 38.373 20.0021 38.3628C20.0522 38.3321 20.0971 38.2957 20.1347 38.2496C20.1421 38.2405 20.1529 38.2376 20.1597 38.228C20.1791 38.2018 20.2013 38.1785 20.2235 38.1563L21.5042 36.9039C21.725 37.1429 21.9554 37.3694 22.1978 37.5856L20.9358 38.8265C20.9114 38.8504 20.8875 38.8726 20.8596 38.892C20.8459 38.9016 20.8385 38.9164 20.826 38.9272C20.7976 38.9511 20.7742 38.9767 20.7515 39.0052C20.7304 39.0314 20.7122 39.0581 20.6968 39.0871C20.6809 39.1179 20.6701 39.148 20.6604 39.1816C20.6508 39.2146 20.6434 39.2459 20.6405 39.28C20.6371 39.313 20.6388 39.3454 20.6417 39.379C20.6456 39.4149 20.6519 39.449 20.6627 39.4837C20.6678 39.4996 20.6656 39.5161 20.6724 39.5315C20.6997 39.5975 20.7139 39.6504 20.7207 39.6897C20.5609 39.6669 20.2212 39.5309 19.8639 39.1804ZM38.9448 38.9938C38.5898 39.3415 38.2507 39.4786 38.0879 39.5019C38.0953 39.4632 38.1101 39.4103 38.138 39.3449C38.1454 39.3278 38.1431 39.3102 38.1488 39.2925C38.1602 39.2573 38.167 39.2237 38.171 39.1873C38.1744 39.1537 38.175 39.1218 38.1716 39.0888C38.1687 39.0541 38.1625 39.0223 38.1528 38.9898C38.1431 38.9568 38.1318 38.9272 38.1164 38.8971C38.101 38.8669 38.0828 38.8396 38.0618 38.8129C38.0396 38.785 38.0157 38.7605 37.9884 38.7372C37.9741 38.7253 37.9656 38.7088 37.9502 38.6979C37.9235 38.6797 37.8962 38.6587 37.8723 38.6359L36.8009 37.5856C37.0438 37.3694 37.2743 37.1429 37.4933 36.9056L38.5778 37.9685C38.6023 37.993 38.6234 38.0203 38.6427 38.0465C38.6507 38.0578 38.6638 38.0618 38.6723 38.0715C38.7081 38.1147 38.7502 38.1483 38.7963 38.1779C38.8168 38.1904 38.8333 38.2063 38.8549 38.216C38.9238 38.2479 38.9972 38.2672 39.0734 38.2678C39.074 38.2678 39.0751 38.2684 39.0763 38.2684C39.1389 38.2684 39.2009 38.2541 39.2606 38.2314C39.2669 38.2291 39.2731 38.2308 39.2794 38.228C39.3602 38.195 39.4199 38.1807 39.4575 38.1722C39.4325 38.3224 39.305 38.6405 38.9448 38.9938ZM44.4378 31.2374C44.3929 31.2334 44.1909 31.0701 44.0521 30.5978C44.0452 30.5762 44.0304 30.5609 44.0213 30.5404C44.0077 30.5085 43.9935 30.4784 43.9735 30.4499C43.9525 30.4197 43.9286 30.3947 43.9024 30.3697C43.8797 30.3481 43.8575 30.3281 43.8313 30.3111C43.8 30.2906 43.7676 30.2752 43.7329 30.2616C43.7038 30.2502 43.676 30.2399 43.6447 30.2337C43.6088 30.2263 43.573 30.2252 43.536 30.2252C43.5149 30.2252 43.495 30.2178 43.474 30.22C43.4535 30.2229 43.4302 30.2263 43.4068 30.2263H38.2564C37.9622 30.2263 37.7238 30.4641 37.7238 30.7577C37.7238 31.0508 37.9622 31.2886 38.2564 31.2886H39.1389C38.8652 32.9449 38.1551 34.4971 37.0564 35.8086C36.6535 36.2985 36.1961 36.7475 35.6914 37.1457C34.3514 38.2245 32.7605 38.9221 31.0615 39.1895V38.3315C31.0615 38.0379 30.8231 37.8001 30.5289 37.8001C30.2348 37.8001 29.9964 38.0379 29.9964 38.3315V43.3813C29.9964 43.4023 29.9935 43.4228 29.9907 43.4416C29.9878 43.4649 29.9952 43.4865 29.9952 43.5099C29.9952 43.5457 29.9952 43.5798 30.0021 43.6146C30.0089 43.6481 30.0203 43.6789 30.0334 43.7096C30.0459 43.7414 30.059 43.771 30.0777 43.8C30.0965 43.8285 30.1193 43.8518 30.1432 43.8769C30.1671 43.9008 30.1898 43.9241 30.2177 43.9434C30.2473 43.9639 30.2792 43.9781 30.3133 43.9924C30.3344 44.0015 30.3503 44.0168 30.373 44.0231C30.8322 44.1534 31.0132 44.3423 31.0274 44.3855C30.9904 44.5301 30.4248 44.8697 29.4985 44.8697C28.5722 44.8697 28.0066 44.5306 27.9696 44.3958C27.9839 44.3417 28.1648 44.1534 28.624 44.0231C28.6467 44.0168 28.6627 44.0009 28.6837 43.9924C28.7179 43.9781 28.7497 43.9639 28.7793 43.9434C28.8072 43.9241 28.8299 43.9013 28.8538 43.8769C28.8777 43.8524 28.9005 43.8285 28.9193 43.8C28.9381 43.7716 28.9511 43.7414 28.9637 43.7101C28.9767 43.6789 28.9881 43.6481 28.995 43.6146C29.0018 43.5798 29.0018 43.5457 29.0018 43.5099C29.0018 43.4865 29.0092 43.4649 29.0063 43.4416C29.0041 43.4228 29.0006 43.4023 29.0006 43.3813V38.3315C29.0006 38.0379 28.7622 37.8001 28.4681 37.8001C28.1739 37.8001 27.9355 38.0379 27.9355 38.3315V39.1895C26.2371 38.9221 24.6456 38.2245 23.3017 37.1429C22.801 36.7475 22.3429 36.2991 21.9378 35.8046C20.8419 34.496 20.1318 32.9449 19.8587 31.288H20.7412C21.0354 31.288 21.2738 31.0508 21.2738 30.7572C21.2738 30.4636 21.0354 30.2257 20.7412 30.2257H15.5919C15.5686 30.2257 15.5452 30.2223 15.5248 30.2195C15.5031 30.2172 15.4838 30.2246 15.4627 30.2246C15.4252 30.2246 15.3893 30.2257 15.3535 30.2331C15.3233 30.2394 15.2955 30.2491 15.2676 30.2599C15.2317 30.2741 15.1982 30.2894 15.1663 30.3105C15.1418 30.327 15.1202 30.3458 15.0992 30.3663C15.0718 30.3919 15.0468 30.418 15.0252 30.4493C15.0058 30.4766 14.9922 30.5062 14.9785 30.5375C14.9694 30.558 14.9541 30.5739 14.9472 30.5961C14.8084 31.0678 14.6064 31.2311 14.5615 31.2357C14.4334 31.2237 14.0636 30.6923 14.0636 29.7466C14.0636 28.8004 14.4334 28.2701 14.5615 28.2576C14.6064 28.2616 14.8084 28.4254 14.9472 28.8971C14.9524 28.9142 14.9643 28.9262 14.9711 28.9421C14.9859 28.9785 15.003 29.0121 15.0252 29.0439C15.0417 29.0678 15.0582 29.0895 15.0775 29.1088C15.1043 29.1373 15.1339 29.16 15.1657 29.1811C15.1879 29.1959 15.209 29.2101 15.2334 29.2215C15.2693 29.2385 15.3068 29.2488 15.3467 29.2573C15.3728 29.263 15.3973 29.2693 15.424 29.2715C15.436 29.2721 15.4462 29.2778 15.4582 29.2778C15.4804 29.2778 15.5031 29.2767 15.5259 29.2738C15.5464 29.2715 15.5697 29.2681 15.593 29.2681H20.7441C21.0382 29.2681 21.2766 29.0303 21.2766 28.7367C21.2766 28.4437 21.0382 28.2058 20.7441 28.2058H19.8616C20.1347 26.5501 20.8454 24.9979 21.9441 23.6858C22.3469 23.1959 22.8044 22.747 23.3091 22.3481C24.6496 21.2693 26.2399 20.5717 27.9389 20.3049V21.1623C27.9389 21.4559 28.1773 21.6932 28.4715 21.6932C28.7657 21.6932 29.0041 21.4559 29.0041 21.1623V16.6201C29.0041 16.5991 29.0069 16.5786 29.0097 16.5598C29.0126 16.5365 29.0052 16.5148 29.0052 16.4915C29.0052 16.4557 29.0052 16.4215 28.9984 16.3868C28.9915 16.3527 28.9802 16.322 28.9671 16.2912C28.9546 16.2599 28.9415 16.2298 28.9227 16.2013C28.9039 16.1729 28.8812 16.1496 28.8573 16.1245C28.8334 16.1006 28.8106 16.0773 28.7827 16.0579C28.7531 16.0375 28.7213 16.0232 28.6871 16.009C28.6661 15.9999 28.6501 15.9845 28.6274 15.9783C28.1682 15.848 27.9873 15.6591 27.9731 15.6158C28.0078 15.4708 28.5733 15.1316 29.4996 15.1316C30.426 15.1316 30.9915 15.4708 31.0285 15.6056C31.0143 15.6597 30.8334 15.848 30.3742 15.9783C30.3514 15.9845 30.3355 16.0005 30.3144 16.009C30.2803 16.0232 30.2484 16.0375 30.2188 16.0579C30.191 16.0773 30.1682 16.1001 30.1443 16.1245C30.1204 16.149 30.0977 16.1729 30.0789 16.2013C30.0601 16.2298 30.047 16.2599 30.0345 16.2918C30.0214 16.3231 30.01 16.3533 30.0032 16.3868C29.9964 16.4221 29.9964 16.4557 29.9964 16.4915C29.9964 16.5148 29.989 16.5365 29.9918 16.5598C29.9941 16.5786 29.9975 16.5991 29.9975 16.6201V21.1646C29.9975 21.4582 30.2359 21.6955 30.5301 21.6955C30.8242 21.6955 31.0627 21.4582 31.0627 21.1646V20.3071C32.7611 20.5746 34.352 21.2721 35.6965 22.3538C36.1972 22.7492 36.6552 23.1982 37.0603 23.692C38.1562 25.0007 38.8663 26.5523 39.1394 28.2087H38.2564C37.9622 28.2087 37.7238 28.4465 37.7238 28.7395C37.7238 29.0331 37.9622 29.271 38.2564 29.271H43.4074C43.4307 29.271 43.4541 29.2744 43.4745 29.2767C43.4973 29.2795 43.5201 29.2806 43.5422 29.2806C43.5542 29.2806 43.565 29.2755 43.5764 29.2744C43.6026 29.2727 43.6265 29.2658 43.6521 29.2602C43.6925 29.2516 43.7311 29.2414 43.7681 29.2237C43.7915 29.2129 43.8114 29.1993 43.8324 29.185C43.8654 29.1634 43.8956 29.1395 43.9229 29.1111C43.9422 29.0917 43.9582 29.0707 43.9735 29.0474C43.9963 29.0149 44.0134 28.9813 44.0282 28.9444C44.035 28.9284 44.0469 28.9165 44.0521 28.8994C44.1909 28.4277 44.3929 28.2644 44.4378 28.2599C44.5659 28.2718 44.9357 28.8027 44.9357 29.7489C44.9357 30.694 44.5659 31.2249 44.4378 31.2374Z" fill="#D71B4A"/>
<path d="M25.8935 33.7617C25.032 33.7617 24.3311 34.453 24.3311 35.3025C24.3311 36.152 25.032 36.8434 25.8935 36.8434C26.7549 36.8434 27.4559 36.152 27.4559 35.3025C27.4559 34.453 26.7549 33.7617 25.8935 33.7617ZM25.8935 35.7822C25.6192 35.7822 25.3956 35.5671 25.3956 35.3031C25.3956 35.0391 25.6187 34.824 25.8935 34.824C26.1683 34.824 26.3914 35.0391 26.3914 35.3031C26.3914 35.5671 26.1677 35.7822 25.8935 35.7822Z" fill="#D71B4A"/>
</svg>
