<svg width="58" height="58" viewBox="0 0 58 58" fill="none" xmlns="http://www.w3.org/2000/svg">
<path d="M53.9971 18.2753L53.7055 18.1535C53.6537 18.1321 53.6077 18.0995 53.5709 18.0582C53.5081 17.9839 53.4766 17.8891 53.483 17.793C53.4856 17.7461 53.4984 17.7003 53.5203 17.6585C53.5422 17.6167 53.5729 17.5799 53.6103 17.5503C53.9843 17.2389 54.2322 16.8076 54.3093 16.334C54.3864 15.8604 54.2877 15.3754 54.0309 14.9664L52.155 12.0514C51.9629 11.7466 51.6898 11.4983 51.3647 11.3327C51.0395 11.1672 50.6745 11.0905 50.3083 11.1109L49.2206 11.1702C49.159 11.1718 49.098 11.1588 49.0428 11.1323C48.9875 11.1057 48.9397 11.0665 48.9035 11.018C48.8672 10.9698 48.8448 10.9131 48.8384 10.8537C48.8321 10.7943 48.842 10.7343 48.8673 10.6799L49.1261 10.0928C49.2761 9.75172 49.326 9.37674 49.2702 9.00967C49.2143 8.64259 49.055 8.29787 48.8099 8.01399L47.2695 6.23397C47.0607 5.98865 46.7939 5.79652 46.492 5.67413C46.1901 5.55173 45.8622 5.50275 45.5366 5.53139C44.5929 5.57802 43.6691 5.8126 42.8219 6.22068C41.9748 6.62876 41.2223 7.20169 40.6109 7.90415C39.4429 9.4792 38.8502 11.3907 38.9275 13.3329C37.0783 12.3412 34.9647 11.9181 32.8644 12.119C30.764 12.32 28.7751 13.1357 27.1588 14.459L21.4772 19.133L21.4741 19.1355L14.9479 24.5043C14.8869 24.5545 14.8328 24.6101 14.7732 24.6615C14.7625 24.6701 14.7535 24.6793 14.7434 24.6883C13.2059 26.0277 12.1088 27.7804 11.59 29.7261C11.0711 31.6719 11.1538 33.7237 11.8275 35.6238C9.87687 35.2243 7.84523 35.4733 6.0567 36.3312C5.24283 36.8013 4.53633 37.429 3.98076 38.1756C3.4252 38.9222 3.03234 39.7718 2.8264 40.6721C2.74479 40.9795 2.74034 41.3016 2.81342 41.611C2.88651 41.9204 3.03498 42.2081 3.24626 42.4497L4.78654 44.2297C5.03121 44.513 5.35192 44.7243 5.71277 44.8399C6.07361 44.9555 6.46033 44.9708 6.82962 44.8842L7.47122 44.7328C7.53065 44.7177 7.59312 44.7183 7.65225 44.7345C7.71137 44.7507 7.76502 44.7819 7.80771 44.8249C7.85263 44.8665 7.88553 44.9189 7.90313 44.9768C7.92073 45.0348 7.92241 45.0962 7.90798 45.1549L7.66478 46.19C7.58284 46.5381 7.59872 46.9013 7.71077 47.2413C7.82281 47.5814 8.02687 47.8857 8.30142 48.1221L10.9402 50.4227C11.3108 50.7369 11.7841 50.9121 12.2752 50.9168C12.7663 50.9215 13.243 50.7554 13.6199 50.4484C13.6552 50.4166 13.6974 50.393 13.7433 50.3791C13.7892 50.3652 13.8377 50.3615 13.8852 50.3683C13.984 50.3781 14.075 50.4249 14.1391 50.4988C14.1743 50.5398 14.1991 50.5884 14.2114 50.6406L14.2871 50.945C14.3969 51.3811 14.6533 51.7688 15.0154 52.0463C15.3775 52.3237 15.8245 52.4749 16.285 52.4758C16.4345 52.476 16.5836 52.4599 16.7294 52.4277C18.147 52.1371 19.4226 51.3884 20.3495 50.3028C21.2765 49.2172 21.8005 47.8584 21.8369 46.4462C23.6009 47.1469 25.5277 47.3647 27.4094 47.0762C29.291 46.7877 31.0562 46.0037 32.5146 44.8089L44.7264 34.7635C46.1786 33.5621 47.2671 31.997 47.8745 30.2369C48.4818 28.4768 48.5852 26.5885 48.1732 24.7754C48.4375 24.7967 48.7006 24.8164 48.9465 24.8164C50.2632 24.8601 51.5613 24.5039 52.6614 23.797C53.7615 23.0901 54.6092 22.0674 55.0874 20.8703C55.2892 20.3846 55.288 19.8412 55.0843 19.3563C54.8805 18.8714 54.4904 18.4834 53.9971 18.2753ZM16.3589 50.8277C16.2646 50.8472 16.1661 50.83 16.0846 50.7797C16.003 50.7294 15.9449 50.65 15.9227 50.5585L15.848 50.2557C15.7486 49.8533 15.5234 49.4909 15.2036 49.2186C14.8838 48.9464 14.4852 48.7778 14.0628 48.736C13.9897 48.7289 13.9166 48.7249 13.8441 48.7249C13.3645 48.7246 12.9006 48.891 12.5355 49.1943C12.4688 49.2496 12.3842 49.2802 12.2967 49.2805C12.2092 49.2808 12.1243 49.2508 12.0573 49.1959L9.42042 46.8972C9.37142 46.8561 9.33482 46.8028 9.31456 46.7429C9.2943 46.6831 9.29114 46.619 9.30542 46.5575L9.54862 45.5209C9.62602 45.1901 9.61556 44.8455 9.51822 44.5197C9.42088 44.1939 9.23989 43.8977 8.99238 43.6591C8.74487 43.4206 8.43903 43.2476 8.1038 43.1565C7.76857 43.0654 7.41504 43.0592 7.07668 43.1386L6.42852 43.2916C6.36382 43.3047 6.29669 43.3005 6.23423 43.2795C6.17176 43.2585 6.11627 43.2214 6.07361 43.1722L4.53333 41.3922C4.49689 41.3533 4.4705 41.3065 4.45635 41.2556C4.44221 41.2048 4.44071 41.1514 4.45198 41.0998C4.60263 40.4117 4.8956 39.7608 5.31299 39.1869C5.73037 38.6129 6.2634 38.128 6.8795 37.7618C8.76157 36.7332 11.2278 37.1018 12.7147 37.4829C12.791 37.6067 12.8768 37.7245 12.9586 37.8451C13.0154 37.9293 13.0691 38.015 13.1283 38.0974C13.3097 38.3502 13.4997 38.5966 13.7026 38.8311L17.8232 43.5933C18.0091 43.8083 18.2049 44.0133 18.407 44.2113C18.4717 44.2747 18.5403 44.3334 18.6066 44.3949C18.7476 44.5262 18.89 44.6554 19.0381 44.7785C19.1223 44.8481 19.2089 44.914 19.295 44.981C19.4333 45.0887 19.5732 45.1943 19.7173 45.2949C19.8115 45.361 19.9071 45.4248 20.0038 45.4879C20.0715 45.5321 20.1359 45.5806 20.2048 45.6232C20.1732 49.209 18.1156 50.4363 16.3589 50.8277ZM19.1097 42.5359L14.9891 37.7736C14.8034 37.5593 14.6284 37.3358 14.464 37.1031C14.3001 36.8713 14.1478 36.6316 14.0082 36.3861C13.1677 34.8877 12.8065 33.1782 12.9712 31.4779C13.1359 29.7776 13.8188 28.1642 14.9321 26.8457L20.4835 43.8039C19.9798 43.431 19.5191 43.006 19.1093 42.5362L19.1097 42.5359ZM22.6387 44.9904L16.2772 25.5578L21.6045 21.1752L29.3439 44.8207C27.2196 45.7395 24.8086 45.8006 22.6382 44.9907L22.6387 44.9904ZM31.4315 43.5541C31.2405 43.7111 31.0428 43.8576 30.8412 43.9962L22.996 20.0305L28.244 15.7134C28.2692 15.6926 28.2967 15.6753 28.3223 15.6547L36.1784 39.649L31.4315 43.5541ZM37.5694 38.5047L29.778 14.7105C31.7856 13.6624 34.1349 13.4247 36.3205 14.0484L42.8942 34.1238L37.5694 38.5047ZM44.2693 32.9322L38.3698 14.9165C38.7029 15.1077 39.0226 15.3204 39.3266 15.5532C39.7777 15.906 40.1926 16.3006 40.5655 16.7316L44.6861 21.4943C44.9136 21.7612 45.1243 22.0413 45.317 22.3331C45.4479 22.5281 45.5705 22.728 45.6849 22.9325C46.5865 24.5252 46.9358 26.3595 46.6806 28.1617C46.4255 29.9638 45.5797 31.6372 44.2693 32.9322ZM53.5321 20.2435C52.8396 21.8681 51.2459 23.6384 47.623 23.0664C47.59 22.9898 47.5502 22.9167 47.5155 22.8411C47.4702 22.7426 47.4241 22.6453 47.3759 22.5486C47.2963 22.3893 47.2113 22.2332 47.1236 22.0784C47.0718 21.987 47.0212 21.8951 46.9665 21.8054C46.8663 21.6413 46.7588 21.4811 46.6493 21.3225C46.5988 21.2491 46.5513 21.1738 46.4986 21.1016C46.3324 20.8739 46.1584 20.6513 45.9726 20.4365L41.852 15.6742C41.647 15.4377 41.4288 15.2124 41.2033 14.9946C41.132 14.9259 41.0568 14.8618 40.9836 14.7951C40.8742 14.6953 40.7685 14.5916 40.655 14.4966C40.5195 13.0043 40.5624 10.573 41.9193 8.93509C42.3926 8.40546 42.9717 7.97537 43.621 7.67101C44.2704 7.36664 44.9765 7.19439 45.6964 7.16475C45.7509 7.1627 45.8053 7.17308 45.855 7.19505C45.9048 7.21701 45.9486 7.24997 45.983 7.29132L47.5234 9.07134C47.5675 9.12114 47.5963 9.18198 47.6067 9.24696C47.6171 9.31194 47.6087 9.37846 47.5823 9.43899L47.3215 10.031C47.1827 10.342 47.1284 10.6826 47.1637 11.02C47.1991 11.3575 47.323 11.6803 47.5234 11.9575C47.7195 12.2395 47.988 12.4663 48.3021 12.6155C48.6162 12.7646 48.965 12.8308 49.3135 12.8075L50.4028 12.7482C50.4679 12.7448 50.5326 12.7591 50.5898 12.7893C50.6471 12.8196 50.6947 12.8647 50.7273 12.9196L52.602 15.833C52.6475 15.9068 52.6646 15.994 52.6503 16.0789C52.636 16.1639 52.5913 16.2412 52.524 16.2969C52.313 16.4688 52.1403 16.6808 52.0164 16.9201C51.8925 17.1594 51.82 17.4208 51.8035 17.6884C51.774 18.1013 51.877 18.5129 52.0982 18.8662C52.3195 19.2194 52.648 19.4968 53.0382 19.6598L53.3326 19.7828C53.4211 19.8189 53.4915 19.8874 53.5288 19.9735C53.566 20.0596 53.5672 20.1565 53.5321 20.2435Z" fill="#D71B4A" stroke="#D71B4A" stroke-width="0.5" stroke-linejoin="round"/>
</svg>
