<svg width="43" height="42" viewBox="0 0 43 42" fill="none" xmlns="http://www.w3.org/2000/svg">
<path d="M12.4004 22.4806C11.6759 22.4806 11.0879 23.0673 11.0879 23.7931V36.9181C11.0879 37.6439 11.6759 38.2306 12.4004 38.2306H17.6504C18.3749 38.2306 18.9629 37.6439 18.9629 36.9181V23.7931C18.9629 23.0673 18.3749 22.4806 17.6504 22.4806H12.4004ZM16.3379 35.6056H13.7129V25.1056H16.3379V35.6056ZM22.9004 17.2306C22.1759 17.2306 21.5879 17.8173 21.5879 18.5431V36.9181C21.5879 37.6439 22.1759 38.2306 22.9004 38.2306H28.1504C28.8749 38.2306 29.4629 37.6439 29.4629 36.9181V18.5431C29.4629 17.8173 28.8749 17.2306 28.1504 17.2306H22.9004ZM26.8379 35.6056H24.2129V19.8556H26.8379V35.6056ZM38.6504 9.35562H33.4004C32.6759 9.35562 32.0879 9.94231 32.0879 10.6681V36.9181C32.0879 37.6439 32.6759 38.2306 33.4004 38.2306H38.6504C39.3749 38.2306 39.9629 37.6439 39.9629 36.9181V10.6681C39.9629 9.94231 39.3749 9.35562 38.6504 9.35562ZM37.3379 35.6056H34.7129V11.9806H37.3379V35.6056ZM31.1901 4.34974C30.9211 3.94812 30.4512 3.72762 29.9708 3.77487L24.0423 4.36156C23.5829 4.40618 23.1813 4.69099 22.9844 5.10706C22.7875 5.52443 22.8243 6.01531 23.0815 6.39856L24.0265 7.80687L3.79433 21.3912C3.19189 21.7955 3.03177 22.6106 3.43602 23.213C3.68933 23.5897 4.10408 23.7931 4.52671 23.7931C4.77739 23.7931 5.03202 23.7209 5.25646 23.57L25.49 9.98824L26.2223 11.0789C26.4678 11.4425 26.8773 11.6591 27.313 11.6591C27.3353 11.6591 27.359 11.6591 27.3813 11.6577C27.8433 11.6328 28.2567 11.369 28.4733 10.9608L31.261 5.69637C31.4868 5.26981 31.4605 4.75137 31.1901 4.34974Z" fill="white"/>
</svg>
