<svg width="64" height="63" viewBox="0 0 64 63" fill="none" xmlns="http://www.w3.org/2000/svg">
<path d="M43.1594 41.1961C41.4982 40.6178 39.7018 40.5809 38.0406 40.0025C37.5361 39.8303 36.5395 39.6211 36.3303 39.0428C36.1334 38.4767 36.1334 37.8123 36.0965 37.2217C36.0719 36.7541 36.0596 36.2865 36.0596 35.8189C36.0596 35.5113 36.8471 34.8592 37.0193 34.5762C37.6838 33.4687 37.7453 31.9799 37.8684 30.7248C38.9389 31.0201 39.0742 29.0391 39.2588 28.4361C39.3941 28.0178 40.2186 25.1385 38.9389 25.5322C39.2465 24.9908 39.3695 24.3264 39.4557 23.7234C39.7018 22.1484 39.8002 20.4258 39.3203 18.8877C38.3236 15.6885 35.2598 13.892 32.0236 13.7935C28.7383 13.6828 25.4406 15.2578 24.2102 18.4447C23.6195 19.9951 23.6687 21.6808 23.8656 23.3051C23.9518 24.0433 24.0748 24.8678 24.4439 25.5322C23.2504 25.1754 23.8902 27.7101 24.0256 28.1531C24.2225 28.7807 24.3947 31.0324 25.5145 30.7248C25.6129 31.7215 25.7236 32.7428 25.9943 33.7148C26.1789 34.367 26.5604 34.9207 27.0033 35.4252C27.2248 35.6713 27.3355 35.6959 27.3232 36.0158C27.3109 36.9756 27.3355 38.0092 27.0895 38.9443C26.8434 39.8795 24.7885 40.2732 23.9641 40.4455C21.7492 40.9008 19.7066 41.11 17.8609 42.4881C15.7076 44.0754 14.5879 46.5486 14.5879 49.2187H48.7949C48.7949 45.5889 46.6047 42.3896 43.1594 41.1961C44.5498 41.676 41.7813 40.7162 43.1594 41.1961ZM18.2916 44.7398C18.9807 44.0139 19.8543 43.374 20.8018 43.0172C22.0938 42.525 23.558 42.5496 24.8992 42.2051C26.0066 41.9221 27.3848 41.4791 28.2461 40.6793C29.0336 39.941 29.1197 38.809 29.1936 37.7877C29.2551 36.9264 29.2428 36.0773 29.2428 35.216C29.2428 34.6131 28.5414 34.2685 28.1969 33.7887C27.6432 33.0381 27.6186 31.9184 27.5078 31.0201C27.4586 30.6264 27.4463 30.1219 27.1141 29.8512C26.7449 29.5559 26.4742 29.3959 26.2896 28.9283C26.0436 28.2885 25.9574 27.5994 25.7605 26.935C25.6375 26.5043 26.0682 26.0982 26.2404 25.7414C26.5604 25.0892 26.0066 24.0803 25.8959 23.4035C25.5514 21.3855 25.5637 19.183 27.0156 17.5834C29.9318 14.3596 36.6133 15.3809 37.573 19.909C37.8684 21.324 37.6838 22.9728 37.29 24.351C37.1178 24.9416 36.9209 25.3723 37.2654 25.9506C37.7822 26.7873 37.5607 27.3287 37.3146 28.2639C37.1178 29.0391 36.8717 29.3836 36.2811 29.8635C35.7889 30.2572 35.8627 31.2416 35.7766 31.8076C35.6781 32.4967 35.6166 33.2226 35.1982 33.801C35.0383 34.0225 34.1646 34.7115 34.1646 34.9453C34.1646 36.2988 34.1031 37.6769 34.3369 39.0182C34.6568 40.9254 36.2564 41.3807 37.8561 42.0328C39.4803 42.6603 41.3629 42.4266 42.9379 43.2017C44.5621 44.0016 46.1248 45.4658 46.5924 47.2746H16.8027C17.0365 46.2533 17.6025 45.4781 18.2916 44.7398C17.5656 45.515 19.4236 43.5463 18.2916 44.7398Z" fill="white"/>
<path d="M43.1594 41.1961C41.4982 40.6178 39.7018 40.5809 38.0406 40.0025C37.5361 39.8303 36.5395 39.6211 36.3303 39.0428C36.1334 38.4767 36.1334 37.8123 36.0965 37.2217C36.0719 36.7541 36.0596 36.2865 36.0596 35.8189C36.0596 35.5113 36.8471 34.8592 37.0193 34.5762C37.6838 33.4687 37.7453 31.9799 37.8684 30.7248C38.9389 31.0201 39.0742 29.0391 39.2588 28.4361C39.3941 28.0178 40.2186 25.1385 38.9389 25.5322C39.2465 24.9908 39.3695 24.3264 39.4557 23.7234C39.7018 22.1484 39.8002 20.4258 39.3203 18.8877C38.3236 15.6885 35.2598 13.892 32.0236 13.7935C28.7383 13.6828 25.4406 15.2578 24.2102 18.4447C23.6195 19.9951 23.6687 21.6808 23.8656 23.3051C23.9518 24.0433 24.0748 24.8678 24.4439 25.5322C23.2504 25.1754 23.8902 27.7101 24.0256 28.1531C24.2225 28.7807 24.3947 31.0324 25.5145 30.7248C25.6129 31.7215 25.7236 32.7428 25.9943 33.7148C26.1789 34.367 26.5604 34.9207 27.0033 35.4252C27.2248 35.6713 27.3355 35.6959 27.3232 36.0158C27.3109 36.9756 27.3355 38.0092 27.0895 38.9443C26.8434 39.8795 24.7885 40.2732 23.9641 40.4455C21.7492 40.9008 19.7066 41.11 17.8609 42.4881C15.7076 44.0754 14.5879 46.5486 14.5879 49.2187H48.7949C48.7949 45.5889 46.6047 42.3896 43.1594 41.1961C41.7813 40.7162 44.5498 41.676 43.1594 41.1961V41.1961ZM18.2916 44.7398C18.9807 44.0139 19.8543 43.374 20.8018 43.0172C22.0938 42.525 23.558 42.5496 24.8992 42.2051C26.0066 41.9221 27.3848 41.4791 28.2461 40.6793C29.0336 39.941 29.1197 38.809 29.1936 37.7877C29.2551 36.9264 29.2428 36.0773 29.2428 35.216C29.2428 34.6131 28.5414 34.2685 28.1969 33.7887C27.6432 33.0381 27.6186 31.9184 27.5078 31.0201C27.4586 30.6264 27.4463 30.1219 27.1141 29.8512C26.7449 29.5559 26.4742 29.3959 26.2896 28.9283C26.0436 28.2885 25.9574 27.5994 25.7605 26.935C25.6375 26.5043 26.0682 26.0982 26.2404 25.7414C26.5604 25.0892 26.0066 24.0803 25.8959 23.4035C25.5514 21.3855 25.5637 19.183 27.0156 17.5834C29.9318 14.3596 36.6133 15.3809 37.573 19.909C37.8684 21.324 37.6838 22.9728 37.29 24.351C37.1178 24.9416 36.9209 25.3723 37.2654 25.9506C37.7822 26.7873 37.5607 27.3287 37.3146 28.2639C37.1178 29.0391 36.8717 29.3836 36.2811 29.8635C35.7889 30.2572 35.8627 31.2416 35.7766 31.8076C35.6781 32.4967 35.6166 33.2226 35.1982 33.801C35.0383 34.0225 34.1646 34.7115 34.1646 34.9453C34.1646 36.2988 34.1031 37.6769 34.3369 39.0182C34.6568 40.9254 36.2564 41.3807 37.8561 42.0328C39.4803 42.6603 41.3629 42.4266 42.9379 43.2018C44.5621 44.0016 46.1248 45.4658 46.5924 47.2746H16.8027C17.0365 46.2533 17.6025 45.4781 18.2916 44.7398C19.4236 43.5463 17.5656 45.515 18.2916 44.7398V44.7398Z" stroke="white" stroke-width="0.7"/>
<path d="M59.8778 45.6496H46.9545V43.6439H51.6952H57.1954C56.2848 42.1305 53.9592 42.2904 52.4704 41.6875C51.1045 41.1338 50.4401 40.2601 50.354 38.8205C50.3294 38.5498 50.3047 35.4736 50.5631 35.4613C51.6213 35.4244 52.7042 35.4613 53.7501 35.3014C52.8764 32.4713 53.7993 29.5305 53.1963 26.6881C52.8026 24.8055 50.7102 24 48.8153 24C46.7235 24 45.0719 24.8916 44.7274 26.9957C44.2721 29.7889 44.9981 32.6066 44.1122 35.3506C44.8135 35.5844 45.6502 35.5475 46.3885 35.5721C47.1637 35.5967 47.336 35.3998 47.4098 36.175C47.5329 37.5285 48.0374 39.6326 46.9545 40.7154C46.266 41.1584 44.4692 41.4414 43.6569 41.5275C43.2631 41.4537 41.6758 41.6506 42.045 40.8631C42.2911 40.334 43.1278 40.2971 43.6323 40.1617C44.1245 40.0264 45.4411 39.8541 45.5764 39.2512C45.6133 39.0912 45.6995 37.5408 45.5764 37.5408C44.8381 37.5162 44.0999 37.4178 43.3862 37.2455C42.9186 37.1348 42.451 36.9871 42.0204 36.7656C41.2452 36.3719 41.6881 36.1381 41.9958 35.4736C43.7799 31.5115 40.7038 24.5963 45.921 22.5045C47.7297 21.7662 51.2276 21.8031 52.9133 22.849C54.7836 24.0057 55.325 26.2574 55.3743 28.3123C55.4358 30.7855 54.8329 33.6402 56.1741 35.892C56.4202 36.3103 56.6417 36.3596 56.1618 36.6426C55.9526 36.7656 55.7311 36.8518 55.5096 36.9379C55.0297 37.1101 54.5376 37.2086 54.0331 37.2824C53.4793 37.3562 52.8887 37.4424 52.3473 37.3932C52.3104 37.91 52.1135 39.0051 52.4704 39.4357C53.184 40.2971 55.1036 40.3955 56.1002 40.7154C58.2659 41.4291 59.8778 43.2502 59.8778 45.6496Z" fill="white" stroke="white" stroke-width="0.7"/>
<path d="M3.58803 45.6496H16.5113V43.6439H11.7707H6.27045C7.181 42.1305 9.50659 42.2904 10.9955 41.6875C12.3613 41.1338 13.0257 40.2601 13.1119 38.8205C13.1365 38.5498 13.1611 35.4736 12.9027 35.4613C11.8445 35.4244 10.7617 35.4613 9.71577 35.3014C10.5894 32.4713 9.66655 29.5305 10.2695 26.6881C10.6632 24.8055 12.7556 24 14.6505 24C16.7423 24 18.3939 24.8916 18.7384 26.9957C19.1937 29.7889 18.4677 32.6066 19.3537 35.3506C18.6523 35.5844 17.8156 35.5475 17.0773 35.5721C16.3021 35.5967 16.1298 35.3998 16.056 36.175C15.933 37.5285 15.4285 39.6326 16.5113 40.7154C17.1999 41.1584 18.9966 41.4414 19.8089 41.5275C20.2027 41.4537 21.79 41.6506 21.4208 40.8631C21.1748 40.334 20.338 40.2971 19.8335 40.1617C19.3414 40.0264 18.0248 39.8541 17.8894 39.2512C17.8525 39.0912 17.7664 37.5408 17.8894 37.5408C18.6277 37.5162 19.366 37.4178 20.0796 37.2455C20.5472 37.1348 21.0148 36.9871 21.4455 36.7656C22.2207 36.3719 21.7777 36.1381 21.4701 35.4736C19.6859 31.5115 22.7621 24.5963 17.5449 22.5045C15.7361 21.7662 12.2382 21.8031 10.5525 22.849C8.68218 24.0057 8.14077 26.2574 8.09155 28.3123C8.03003 30.7855 8.63296 33.6402 7.29175 35.892C7.04565 36.3103 6.82417 36.3596 7.30405 36.6426C7.51323 36.7656 7.73471 36.8518 7.9562 36.9379C8.43608 37.1101 8.92827 37.2086 9.43276 37.2824C9.98647 37.3562 10.5771 37.4424 11.1185 37.3932C11.1554 37.91 11.3523 39.0051 10.9955 39.4357C10.2818 40.2971 8.36226 40.3955 7.36558 40.7154C5.19995 41.4291 3.58803 43.2502 3.58803 45.6496Z" fill="white" stroke="white" stroke-width="0.7"/>
</svg>
