<svg width="43" height="42" viewBox="0 0 43 42" fill="none" xmlns="http://www.w3.org/2000/svg">
<path d="M21.5822 3.93262C19.1081 3.93262 16.222 4.65173 13.8613 6.52163C11.5006 8.39153 9.77269 11.4804 9.77269 15.7549C9.77269 20.2756 12.6098 24.678 15.3147 28.0591C18.0196 31.4402 20.7209 33.8036 20.7209 33.8036C21.2166 34.2399 21.9579 34.2399 22.4537 33.8036C22.4537 33.8036 25.155 31.4402 27.8599 28.0591C30.5647 24.678 33.4019 20.2756 33.4019 15.7549C33.4019 11.4803 31.674 8.39153 29.3133 6.52163C26.9526 4.65172 24.0562 3.93262 21.5822 3.93262ZM21.5822 6.56008C23.5377 6.56008 25.9039 7.16367 27.6856 8.57489C29.4672 9.98611 30.777 12.1548 30.777 15.7549C30.777 19.1089 28.4073 23.2667 25.8169 26.4109C23.6189 29.0786 22.5993 30.0151 21.5924 31.0249C20.6465 30.0506 19.442 28.98 17.3577 26.4109C14.7911 23.2472 12.3976 19.1089 12.3976 15.7549C12.3976 12.1548 13.7074 9.98611 15.489 8.57489C17.2707 7.16368 19.6266 6.56008 21.5822 6.56008ZM21.5822 9.21317C17.9735 9.21317 15.0225 12.1744 15.0225 15.7831C15.0225 19.3918 17.9735 22.3428 21.5822 22.3428C25.1908 22.3428 28.1521 19.3918 28.1521 15.7831C28.1521 12.1744 25.1908 9.21317 21.5822 9.21317ZM21.5822 11.8406C23.7722 11.8406 25.5272 13.593 25.5272 15.7831C25.5272 17.9732 23.7722 19.7153 21.5822 19.7153C19.3921 19.7153 17.6499 17.9732 17.6499 15.7831C17.6499 13.593 19.3921 11.8406 21.5822 11.8406ZM14.9943 30.4994C14.965 30.5017 14.9361 30.5053 14.9071 30.5098C12.0595 30.8028 9.90502 31.233 8.44487 31.8658C7.71479 32.1823 7.05985 32.4891 6.66332 33.3475C6.46505 33.7766 6.44576 34.3774 6.63257 34.8291C6.81938 35.2808 7.12424 35.5824 7.43747 35.8186C8.69038 36.7632 10.4791 37.1327 12.9205 37.495C15.362 37.8573 18.3709 38.0665 21.5822 38.0666C24.7934 38.0668 27.8014 37.857 30.2438 37.495C32.6862 37.133 34.4834 36.7616 35.7371 35.8186C36.0506 35.5828 36.3543 35.2902 36.542 34.8393C36.7298 34.3885 36.7087 33.7776 36.5113 33.3475C36.1164 32.4872 35.4593 32.1825 34.7297 31.8658C33.2706 31.2325 31.1246 30.8031 28.2777 30.5098C26.6045 30.3734 26.2055 32.8203 28.006 33.1245C30.2798 33.3587 32.1915 33.7318 33.2917 34.1216C32.5286 34.3981 31.4038 34.669 29.8567 34.8983C27.5823 35.2354 24.6802 35.4419 21.5822 35.4417C18.4841 35.4416 15.5835 35.2357 13.3101 34.8984C11.7558 34.6677 10.6251 34.3985 9.86497 34.1217C10.9394 33.7662 12.8844 33.3595 15.1686 33.1245C16.8827 32.8705 16.6524 30.5115 14.9943 30.4996L14.9943 30.4994Z" fill="white"/>
</svg>
