<svg width="41" height="40" viewBox="0 0 41 40" fill="none" xmlns="http://www.w3.org/2000/svg">
<path d="M20.5879 38H29.3274C30.597 38 31.6988 37.1097 31.9852 35.8538L35.5879 20L30.8152 21.3846L27.4061 20L23.997 21.3846L20.5879 20L17.1788 21.3846L13.7697 20L10.3606 21.3846L5.58789 20L9.19062 35.8538C9.47698 37.1097 10.5788 38 11.8483 38H20.5879Z" stroke="#D71B4A" stroke-width="2" stroke-miterlimit="10" stroke-linecap="round" stroke-linejoin="round"/>
<path d="M23.5699 9C29.8699 9.66461 34.5879 12.635 34.5879 19.7016C34.5879 19.7965 34.5879 19.9051 34.5879 20M6.58789 20C6.58789 19.9051 6.58789 19.7965 6.58789 19.7016C6.58789 12.635 11.3059 9.66461 17.6059 9" stroke="#D71B4A" stroke-width="2" stroke-miterlimit="10" stroke-linecap="round" stroke-linejoin="round"/>
<path d="M17.5879 21L18.5879 38" stroke="#D71B4A" stroke-width="2" stroke-miterlimit="10" stroke-linecap="round" stroke-linejoin="round"/>
<path d="M10.5879 21L13.5879 38" stroke="#D71B4A" stroke-width="2" stroke-miterlimit="10" stroke-linecap="round" stroke-linejoin="round"/>
<path d="M23.5879 21L22.5879 38" stroke="#D71B4A" stroke-width="2" stroke-miterlimit="10" stroke-linecap="round" stroke-linejoin="round"/>
<path d="M31 21L28 38" stroke="#D71B4A" stroke-width="2" stroke-miterlimit="10" stroke-linecap="round" stroke-linejoin="round"/>
<path d="M20.5879 10C22.797 10 24.5879 8.20914 24.5879 6C24.5879 3.79086 22.797 2 20.5879 2C18.3788 2 16.5879 3.79086 16.5879 6C16.5879 8.20914 18.3788 10 20.5879 10Z" stroke="#D71B4A" stroke-width="2" stroke-miterlimit="10" stroke-linecap="round" stroke-linejoin="round"/>
<path d="M26.5879 15H27.5879" stroke="#D71B4A" stroke-width="2" stroke-miterlimit="10" stroke-linecap="round" stroke-linejoin="round"/>
<path d="M14.5879 15H13.5879" stroke="#D71B4A" stroke-width="2" stroke-miterlimit="10" stroke-linecap="round" stroke-linejoin="round"/>
<path d="M21.5879 15H20.5879" stroke="#D71B4A" stroke-width="2" stroke-miterlimit="10" stroke-linecap="round" stroke-linejoin="round"/>
</svg>
