<svg width="18" height="16" viewBox="0 0 18 16" fill="none" xmlns="http://www.w3.org/2000/svg">
<path d="M15.8384 5.02905C15.8531 5.443 16.2006 5.76663 16.6146 5.75189C17.0285 5.73715 17.3522 5.38962 17.3374 4.97567L15.8384 5.02905ZM12.3019 1.00236V1.75236C12.3102 1.75236 12.3186 1.75222 12.3269 1.75194L12.3019 1.00236ZM5.87389 1.00236L5.84884 1.75194C5.85719 1.75222 5.86554 1.75236 5.87389 1.75236V1.00236ZM0.838366 4.97567C0.823625 5.38962 1.14725 5.73715 1.5612 5.75189C1.97515 5.76663 2.32268 5.443 2.33742 5.02905L0.838366 4.97567ZM17.3379 5.00236C17.3379 4.58815 17.0021 4.25236 16.5879 4.25236C16.1737 4.25236 15.8379 4.58815 15.8379 5.00236H17.3379ZM16.5879 11.0024L17.3374 11.029C17.3377 11.0202 17.3379 11.0113 17.3379 11.0024H16.5879ZM12.3019 15.0024L12.3269 14.2528C12.3186 14.2525 12.3102 14.2524 12.3019 14.2524V15.0024ZM5.87389 15.0024V14.2524C5.86554 14.2524 5.85719 14.2525 5.84884 14.2528L5.87389 15.0024ZM1.58789 11.0024H0.837891C0.837891 11.0113 0.838049 11.0202 0.838366 11.029L1.58789 11.0024ZM2.33789 5.00236C2.33789 4.58815 2.0021 4.25236 1.58789 4.25236C1.17368 4.25236 0.837891 4.58815 0.837891 5.00236H2.33789ZM16.9662 5.64996C17.3239 5.44103 17.4444 4.98172 17.2355 4.62406C17.0266 4.2664 16.5673 4.14583 16.2096 4.35476L16.9662 5.64996ZM11.3239 8.07736L10.9456 7.42973L10.9393 7.43345L11.3239 8.07736ZM6.85189 8.07736L7.23645 7.43342L7.23019 7.42976L6.85189 8.07736ZM1.96619 4.35476C1.60853 4.14583 1.14922 4.2664 0.940289 4.62406C0.731359 4.98172 0.851929 5.44103 1.20959 5.64996L1.96619 4.35476ZM17.3374 4.97567C17.2413 2.27536 14.9773 0.16252 12.2768 0.252779L12.3269 1.75194C14.2008 1.68931 15.7716 3.15537 15.8384 5.02905L17.3374 4.97567ZM12.3019 0.252361H5.87389V1.75236H12.3019V0.252361ZM5.89894 0.252779C3.19843 0.16252 0.934521 2.27536 0.838366 4.97567L2.33742 5.02905C2.40414 3.15537 3.97501 1.68931 5.84884 1.75194L5.89894 0.252779ZM15.8379 5.00236V11.0024H17.3379V5.00236H15.8379ZM15.8384 10.9757C15.7716 12.8494 14.2008 14.3154 12.3269 14.2528L12.2768 15.7519C14.9773 15.8422 17.2413 13.7294 17.3374 11.029L15.8384 10.9757ZM12.3019 14.2524H5.87389V15.7524H12.3019V14.2524ZM5.84884 14.2528C3.97501 14.3154 2.40414 12.8494 2.33742 10.9757L0.838366 11.029C0.934521 13.7294 3.19843 15.8422 5.89894 15.7519L5.84884 14.2528ZM2.33789 11.0024V5.00236H0.837891V11.0024H2.33789ZM16.2096 4.35476L10.9456 7.42976L11.7022 8.72496L16.9662 5.64996L16.2096 4.35476ZM10.9393 7.43345C9.79898 8.11447 8.3768 8.11447 7.23644 7.43345L6.46735 8.72127C8.08142 9.68519 10.0944 9.68519 11.7084 8.72127L10.9393 7.43345ZM7.23019 7.42976L1.96619 4.35476L1.20959 5.64996L6.47359 8.72496L7.23019 7.42976Z" fill="#818285"/>
</svg>
