<svg width="17" height="16" viewBox="0 0 17 16" fill="none" xmlns="http://www.w3.org/2000/svg">
<g clip-path="url(#clip0_317_582)">
<path fill-rule="evenodd" clip-rule="evenodd" d="M15.8606 11.5775V13.7594C15.8614 13.9619 15.8199 14.1624 15.7388 14.348C15.6576 14.5336 15.5386 14.7002 15.3894 14.8371C15.2401 14.974 15.0639 15.0783 14.872 15.1431C14.6801 15.208 14.4768 15.2321 14.2751 15.2139C12.0372 14.9707 9.88748 14.206 7.99875 12.9812C6.24153 11.8646 4.75172 10.3748 3.63511 8.61754C2.40601 6.72024 1.64111 4.56008 1.40239 2.31209C1.38421 2.11097 1.40811 1.90828 1.47257 1.71691C1.53702 1.52553 1.64062 1.34968 1.77676 1.20054C1.9129 1.0514 2.07861 0.93224 2.26333 0.850649C2.44804 0.769058 2.64773 0.726823 2.84966 0.726633H5.03148C5.38443 0.723159 5.7266 0.848145 5.99421 1.07829C6.26183 1.30844 6.43663 1.62805 6.48602 1.97754C6.57839 2.67572 6.74857 3.36154 6.99511 4.02118C7.09296 4.28149 7.11414 4.56439 7.05614 4.83636C6.99813 5.10834 6.86338 5.35799 6.66784 5.55572L5.74421 6.47936C6.77952 8.30012 8.28708 9.80768 10.1078 10.843L11.0315 9.91936C11.2292 9.72382 11.4789 9.58907 11.7508 9.53107C12.0228 9.47306 12.3057 9.49424 12.566 9.59209C13.2257 9.83863 13.9115 10.0088 14.6097 10.1012C14.9629 10.151 15.2856 10.329 15.5162 10.6012C15.7469 10.8734 15.8694 11.2209 15.8606 11.5775Z" stroke="#D71B4A" stroke-width="1.5" stroke-linecap="round" stroke-linejoin="round"/>
</g>
<defs>
<clipPath id="clip0_317_582">
<rect width="16" height="16" fill="white" transform="translate(0.587891)"/>
</clipPath>
</defs>
</svg>
