<svg width="24" height="24" viewBox="0 0 24 24" fill="none" xmlns="http://www.w3.org/2000/svg">
<path fill-rule="evenodd" clip-rule="evenodd" d="M14.75 7.75C14.75 9.26878 13.5188 10.5 12 10.5C10.4812 10.5 9.25 9.26878 9.25 7.75C9.25 6.23122 10.4812 5 12 5C13.5188 5 14.75 6.23122 14.75 7.75Z" stroke="#818285" stroke-width="1.5" stroke-linecap="round" stroke-linejoin="round"/>
<path d="M7.24967 15.7341C7.23738 15.3201 6.89179 14.9944 6.47775 15.0067C6.06372 15.019 5.73804 15.3646 5.75033 15.7786L7.24967 15.7341ZM9.885 18.9504V18.2004C9.8779 18.2004 9.87081 18.2005 9.86372 18.2007L9.885 18.9504ZM14.115 18.9504L14.1363 18.2007C14.1292 18.2005 14.1221 18.2004 14.115 18.2004V18.9504ZM18.2497 15.7786C18.262 15.3646 17.9363 15.019 17.5222 15.0067C17.1082 14.9944 16.7626 15.3201 16.7503 15.7341L18.2497 15.7786ZM16.7503 15.6336C16.7626 16.0476 17.1082 16.3733 17.5222 16.361C17.9363 16.3488 18.262 16.0032 18.2497 15.5891L16.7503 15.6336ZM14.115 12.4174V13.1674C14.1221 13.1674 14.1292 13.1673 14.1363 13.1671L14.115 12.4174ZM9.885 12.4174L9.86372 13.1671C9.87081 13.1673 9.8779 13.1674 9.885 13.1674V12.4174ZM5.75033 15.5891C5.73804 16.0032 6.06372 16.3488 6.47775 16.361C6.89179 16.3733 7.23738 16.0476 7.24967 15.6336L5.75033 15.5891ZM5.75033 15.7786C5.8165 18.0085 7.67632 19.7634 9.90628 19.7001L9.86372 18.2007C8.4611 18.2405 7.29129 17.1367 7.24967 15.7341L5.75033 15.7786ZM9.885 19.7004H14.115V18.2004H9.885V19.7004ZM14.0937 19.7001C16.3237 19.7634 18.1835 18.0085 18.2497 15.7786L16.7503 15.7341C16.7087 17.1367 15.5389 18.2405 14.1363 18.2007L14.0937 19.7001ZM18.2497 15.5891C18.1835 13.3592 16.3237 11.6044 14.0937 11.6677L14.1363 13.1671C15.5389 13.1272 16.7087 14.231 16.7503 15.6336L18.2497 15.5891ZM14.115 11.6674H9.885V13.1674H14.115V11.6674ZM9.90628 11.6677C7.67632 11.6044 5.8165 13.3592 5.75033 15.5891L7.24967 15.6336C7.29129 14.231 8.4611 13.1272 9.86372 13.1671L9.90628 11.6677Z" fill="#818285"/>
</svg>
