<svg width="58" height="58" viewBox="0 0 58 58" fill="none" xmlns="http://www.w3.org/2000/svg">
<path d="M9.2164 34.4378C9.07211 34.4378 8.92987 34.4037 8.80134 34.3381L1.8939 30.7802C1.68093 30.6706 1.52002 30.4811 1.44631 30.2532C1.37261 30.0253 1.39213 29.7775 1.50059 29.564L9.61515 13.536C9.66902 13.4296 9.74337 13.3349 9.83393 13.2572C9.9245 13.1796 10.0295 13.1206 10.1429 13.0837C10.2563 13.0467 10.3759 13.0325 10.4948 13.0419C10.6137 13.0512 10.7296 13.084 10.8359 13.1382L17.4071 16.4913C17.6181 16.5987 17.7787 16.7843 17.8545 17.0086C17.9304 17.2328 17.9155 17.4778 17.8131 17.6912L10.0338 33.9203C9.98126 34.0295 9.90745 34.127 9.81674 34.2073C9.72602 34.2876 9.62021 34.349 9.5055 34.388C9.41237 34.4197 9.31479 34.4366 9.2164 34.4378ZM3.52425 29.5803L8.80225 32.299L15.7967 17.7084L10.8214 15.1709L3.52425 29.5803Z" fill="white" stroke="white" stroke-width="0.5"/>
<path d="M18.6048 21.8261C18.4489 21.8261 18.2956 21.7858 18.1598 21.7092L15.5262 20.2257C15.4225 20.1673 15.3313 20.0891 15.2578 19.9955C15.1843 19.9019 15.13 19.7947 15.098 19.6801C15.0659 19.5654 15.0567 19.4456 15.071 19.3275C15.0852 19.2093 15.1226 19.0951 15.181 18.9914C15.2393 18.8877 15.3176 18.7965 15.4112 18.723C15.5048 18.6495 15.612 18.5952 15.7266 18.5631C15.8412 18.5311 15.961 18.5219 16.0792 18.5361C16.1973 18.5504 16.3115 18.5877 16.4153 18.6461L18.5903 19.8705C19.4394 19.3557 21.2773 18.2474 22.4536 17.5831C24.374 16.4956 25.7261 16.6451 27.2785 18.116C27.4484 18.2823 27.5462 18.5087 27.5508 18.7464C27.5553 18.9842 27.4662 19.2142 27.3027 19.3868C27.1392 19.5595 26.9144 19.661 26.6768 19.6694C26.4391 19.6778 26.2077 19.5925 26.0324 19.4318C25.0681 18.5183 24.5661 18.4712 23.3454 19.16C21.8337 20.0145 19.1068 21.6766 19.0787 21.6975C18.9356 21.7832 18.7716 21.8277 18.6048 21.8261Z" fill="white" stroke="white" stroke-width="0.5"/>
<path d="M42.4457 37.5933C41.7854 37.6103 41.1339 37.4383 40.568 37.0976C39.7342 36.5412 36.0657 32.9434 35.3389 32.2283C35.1787 32.0578 35.0906 31.8319 35.0932 31.5979C35.0958 31.3639 35.1888 31.1399 35.3527 30.9729C35.5166 30.8059 35.7388 30.7088 35.9727 30.702C36.2067 30.6951 36.4342 30.779 36.6076 30.936C38.2389 32.5464 41.0374 35.2335 41.5712 35.5896C41.9152 35.7486 42.2957 35.8119 42.6727 35.773C43.0497 35.7341 43.4092 35.5944 43.7136 35.3685C43.8561 35.2449 43.9697 35.0916 44.0464 34.9193C44.1232 34.7469 44.1612 34.5599 44.1577 34.3713C44.1542 34.1827 44.1094 33.9972 44.0264 33.8278C43.9434 33.6584 43.8242 33.5093 43.6773 33.3911C42.7511 32.3489 38.9032 28.6468 38.0586 27.8348C35.1114 26.7545 32.2534 25.4449 29.5108 23.918L28.5574 24.5415C28.3434 25.5351 27.7723 26.4157 26.9525 27.0165C26.6647 27.2432 26.3306 27.4039 25.9739 27.4872C25.6171 27.5705 25.2464 27.5744 24.888 27.4986C24.4531 27.4444 24.0343 27.3 23.6583 27.0747C23.2824 26.8494 22.9577 26.548 22.7049 26.19C22.2229 25.1603 22.1688 23.9816 22.5544 22.9121C23.3275 19.8182 24.5817 19.0216 26.3172 17.9196L26.6987 17.6758C28.6109 16.4478 30.2521 15.7935 32.0537 16.6046C33.1739 17.1094 37.1496 18.6491 38.2788 19.0859L42.0633 17.8452C42.29 17.7763 42.5347 17.7989 42.7449 17.9082C42.9552 18.0175 43.1143 18.2048 43.1881 18.4299C43.2619 18.6551 43.2446 18.9002 43.1399 19.1128C43.0352 19.3253 42.8514 19.4884 42.6279 19.5671L38.5361 20.9084C38.338 20.973 38.1238 20.9679 37.929 20.8939C37.7142 20.8105 32.6591 18.8657 31.3133 18.2585C30.5059 17.896 29.6531 17.9332 27.6811 19.2001L27.2914 19.4493C25.7082 20.4543 24.9134 20.96 24.3153 23.3516C24.009 24.5769 24.1503 25.0735 24.2618 25.2547C24.405 25.494 24.7367 25.591 25.265 25.7233C25.3784 25.7424 25.4947 25.736 25.6053 25.7047C25.716 25.6733 25.8183 25.6178 25.9048 25.542C26.1604 25.3494 26.3739 25.1066 26.5321 24.8284C26.6903 24.5502 26.7899 24.2425 26.8247 23.9244C26.8365 23.7877 26.8792 23.6556 26.9495 23.5378C27.0199 23.4201 27.116 23.3199 27.2307 23.2447L28.9752 22.1037C29.1127 22.0143 29.2719 21.9638 29.4358 21.9578C29.5997 21.9517 29.7622 21.9903 29.9059 22.0693C29.9676 22.1028 36.0775 25.4441 38.7536 26.1474C38.9024 26.1871 39.0389 26.2635 39.1506 26.3694C39.3463 26.557 43.9537 30.9687 45.0358 32.1894C45.3356 32.4796 45.5734 32.8277 45.7346 33.2126C45.8959 33.5974 45.9773 34.011 45.9739 34.4283C45.9705 34.8456 45.8824 35.2578 45.7149 35.64C45.5474 36.0222 45.304 36.3664 44.9995 36.6517C44.3022 37.2843 43.3868 37.6219 42.4457 37.5933Z" fill="white" stroke="white" stroke-width="0.5"/>
<path d="M44.3578 33.6964C44.1501 33.6963 43.9488 33.6248 43.7875 33.494C43.6262 33.3632 43.5148 33.181 43.4718 32.9778C43.4288 32.7746 43.4569 32.5629 43.5513 32.3779C43.6458 32.193 43.8009 32.0461 43.9907 31.9619L47.1698 30.5536C47.2791 30.502 47.3976 30.4727 47.5183 30.4676C47.6391 30.4625 47.7596 30.4816 47.8729 30.5237C47.9861 30.5659 48.0898 30.6302 48.1778 30.713C48.2659 30.7958 48.3364 30.8954 48.3854 31.0059C48.4343 31.1164 48.4607 31.2356 48.4629 31.3564C48.4651 31.4772 48.4432 31.5973 48.3983 31.7095C48.3534 31.8217 48.2866 31.9238 48.2017 32.0098C48.1168 32.0958 48.0155 32.1639 47.9039 32.2102L44.7239 33.6221C44.6083 33.6721 44.4836 33.6974 44.3578 33.6964Z" fill="white" stroke="white" stroke-width="0.5"/>
<path d="M48.5148 34.4378C48.3342 34.4377 48.1578 34.3837 48.0081 34.2826C47.8584 34.1815 47.7423 34.038 47.6748 33.8705L40.8344 16.9001C40.7887 16.7869 40.7663 16.6657 40.7686 16.5436C40.7709 16.4216 40.7978 16.3013 40.8477 16.1899C40.8976 16.0785 40.9696 15.9784 41.0592 15.8955C41.1487 15.8126 41.2542 15.7486 41.3691 15.7074L48.6789 13.092C48.9 13.0129 49.1432 13.0227 49.3572 13.1194C49.5713 13.2161 49.7394 13.3922 49.8262 13.6104L56.5324 30.4431C56.5763 30.5544 56.5977 30.6732 56.5954 30.7928C56.5931 30.9124 56.5672 31.0304 56.5191 31.1399C56.471 31.2494 56.4017 31.3484 56.3151 31.431C56.2286 31.5136 56.1266 31.5782 56.015 31.6212L48.8393 34.3744C48.7359 34.4152 48.626 34.4367 48.5148 34.4378ZM42.8653 17.0958L49.0196 32.3634L54.5061 30.2609L48.4659 15.093L42.8653 17.0958ZM38.363 40.3429C37.616 40.3653 36.8864 40.1143 36.3113 39.637C35.0978 38.5585 31.9785 35.441 31.8462 35.3087C31.6811 35.1378 31.5898 34.9089 31.5918 34.6713C31.5939 34.4337 31.6892 34.2064 31.8572 34.0383C32.0253 33.8703 32.2526 33.775 32.4902 33.7729C32.7278 33.7709 32.9567 33.8622 33.1276 34.0273C33.1593 34.059 36.3421 37.2399 37.5148 38.2867C37.7579 38.4348 38.0331 38.522 38.3171 38.5409C38.6011 38.5598 38.8855 38.5099 39.146 38.3954C39.5716 38.2503 39.9491 37.991 40.2374 37.646C40.5257 37.301 40.7137 36.8834 40.7809 36.4388C40.8011 36.3215 40.8443 36.2094 40.9079 36.1088C40.9714 36.0082 41.0542 35.921 41.1514 35.8524C41.2487 35.7838 41.3585 35.735 41.4746 35.7088C41.5907 35.6826 41.7108 35.6795 41.8281 35.6998C41.9454 35.72 42.0575 35.7631 42.1581 35.8267C42.2587 35.8903 42.3459 35.9731 42.4145 36.0703C42.4831 36.1675 42.5319 36.2773 42.5581 36.3934C42.5843 36.5095 42.5874 36.6297 42.5671 36.7469C42.4439 37.5083 42.1168 38.222 41.6206 38.8124C41.1244 39.4028 40.4775 39.8478 39.7487 40.1001C39.3037 40.258 38.8353 40.3401 38.363 40.3429Z" fill="white" stroke="white" stroke-width="0.5"/>
<path d="M34.1454 42.5388C33.3999 42.5706 32.6714 42.3106 32.1145 41.8138L28.8955 38.5948L30.1779 37.3125L33.3969 40.5315C33.596 40.6434 33.8165 40.7121 34.044 40.7334C34.2714 40.7546 34.5008 40.7278 34.7173 40.6547C35.133 40.5527 35.5136 40.3408 35.8194 40.0412C36.1252 39.7417 36.3449 39.3654 36.4554 38.9519C36.489 38.8365 36.5451 38.729 36.6205 38.6355C36.696 38.542 36.7893 38.4645 36.895 38.4074C37.0006 38.3503 37.1166 38.3148 37.2362 38.3029C37.3557 38.291 37.4764 38.3031 37.5913 38.3383C37.7061 38.3735 37.8128 38.4312 37.9052 38.508C37.9976 38.5848 38.0737 38.6792 38.1293 38.7857C38.1848 38.8922 38.2186 39.0087 38.2287 39.1284C38.2389 39.2481 38.2251 39.3686 38.1882 39.483C37.9361 40.3612 37.4057 41.1339 36.6769 41.685C35.948 42.236 35.06 42.5357 34.1463 42.5388H34.1454Z" fill="white" stroke="white" stroke-width="0.5"/>
<path d="M30.6911 44.9612C29.9503 44.977 29.2257 44.7423 28.6348 44.2951C27.2999 43.2266 26.1762 42.3494 26.1744 42.3485C26.0786 42.2759 25.9983 42.1851 25.9379 42.0812C25.8776 41.9773 25.8386 41.8624 25.823 41.7433C25.8075 41.6242 25.8158 41.5032 25.8475 41.3873C25.8791 41.2714 25.9335 41.163 26.0075 41.0683C26.0814 40.9736 26.1735 40.8946 26.2782 40.8358C26.383 40.777 26.4984 40.7397 26.6177 40.7259C26.7371 40.7121 26.858 40.7222 26.9734 40.7556C27.0888 40.7889 27.1964 40.8449 27.29 40.9202C27.29 40.9202 28.4219 41.8038 29.7677 42.8805C30.0544 43.0511 30.3805 43.1444 30.7141 43.1512C31.0477 43.1581 31.3773 43.0782 31.6708 42.9194C31.9332 42.8066 32.1552 42.6169 32.3076 42.3754C32.46 42.1338 32.5356 41.8518 32.5245 41.5664C32.5171 41.3262 32.6055 41.0929 32.7702 40.9178C32.9349 40.7428 33.1624 40.6403 33.4026 40.633C33.6421 40.6287 33.8738 40.7183 34.0482 40.8825C34.2226 41.0468 34.3259 41.2727 34.3361 41.512C34.3574 42.1433 34.1929 42.7669 33.863 43.3055C33.533 43.8441 33.0521 44.2739 32.4801 44.5416C31.9239 44.8169 31.3117 44.9605 30.6911 44.9612Z" fill="white" stroke="white" stroke-width="0.5"/>
<path d="M23.8996 44.5402C23.6051 44.5391 23.3135 44.4806 23.0414 44.368C22.3024 44.0054 21.6932 43.4237 21.2969 42.7023C20.6537 42.8271 19.9872 42.7269 19.4091 42.4186C18.9242 42.1008 18.5074 41.6897 18.1828 41.2093C17.8583 40.7288 17.6325 40.1886 17.5187 39.6201C17.4709 39.3887 17.5155 39.1477 17.6429 38.9486C18.3796 37.7995 19.4907 36.0133 19.6565 35.6408C19.8058 35.3436 20.0175 35.0823 20.2771 34.8745C20.5368 34.6668 20.8383 34.5177 21.1609 34.4373C21.5998 34.3223 22.0589 34.3069 22.5045 34.3922C22.9502 34.4775 23.3711 34.6613 23.7365 34.9303C24.1414 35.1984 24.4666 35.5706 24.6778 36.008C24.8889 36.4453 24.9783 36.9314 24.9364 37.4152C25.3674 37.4338 25.7895 37.5446 26.1741 37.7402C26.5587 37.9358 26.8968 38.2116 27.1657 38.549C27.4269 38.9572 27.5937 39.4185 27.6537 39.8994C27.7138 40.3803 27.6656 40.8685 27.5128 41.3284C27.0375 42.6551 26.0616 43.7429 24.7941 44.3589C24.5111 44.4786 24.2069 44.5402 23.8996 44.5402ZM22.823 41.7118C23.1075 42.193 23.616 42.8836 24.0917 42.6851C24.8817 42.2737 25.4898 41.5825 25.7973 40.7466C25.8578 40.5616 25.881 40.3665 25.8654 40.1725C25.8498 39.9785 25.7959 39.7895 25.7067 39.6165C25.5688 39.4815 25.4051 39.3756 25.2255 39.3053C25.0458 39.2349 24.8538 39.2014 24.6609 39.2069L22.823 41.7118ZM19.3874 39.5821C19.5316 40.0856 19.8441 40.5245 20.2728 40.8255C20.4066 40.8941 20.5531 40.9346 20.7032 40.9445C20.8533 40.9543 21.0039 40.9332 21.1455 40.8826L23.0804 37.5657C23.1573 37.3607 23.1622 37.1357 23.0944 36.9275C23.0265 36.7194 22.8899 36.5405 22.707 36.4202C22.5678 36.3105 22.4072 36.2311 22.2355 36.1873C22.0638 36.1434 21.8848 36.136 21.7101 36.1655C21.5558 36.191 21.415 36.2687 21.3114 36.3857C21.0721 36.9159 19.9212 38.7429 19.3874 39.5821Z" fill="white" stroke="white" stroke-width="0.5"/>
<path d="M16.9732 40.9974C16.7585 40.998 16.5448 40.9675 16.3389 40.9067C14.7865 40.44 14.1784 38.43 14.114 38.2025C14.0815 38.0871 14.0722 37.9664 14.0867 37.8474C14.1012 37.7284 14.1391 37.6134 14.1983 37.5092C14.9686 36.1712 15.8206 34.8819 16.7494 33.6486C17.2157 33.042 17.8913 32.6309 18.6444 32.4957C19.3974 32.3605 20.1739 32.5108 20.8221 32.9172C21.6776 33.5108 22.3047 34.8022 21.2553 36.4897C21.1925 36.5908 21.1104 36.6786 21.0137 36.7481C20.917 36.8175 20.8075 36.8672 20.6916 36.8944C20.5757 36.9215 20.4556 36.9255 20.3381 36.9062C20.2206 36.887 20.1081 36.8447 20.0069 36.7819C19.9058 36.7192 19.818 36.6371 19.7485 36.5404C19.6791 36.4437 19.6294 36.3342 19.6022 36.2183C19.5751 36.1024 19.5711 35.9822 19.5903 35.8648C19.6096 35.7473 19.6519 35.6347 19.7147 35.5336C19.9476 35.1575 20.1497 34.6581 19.7881 34.4071C19.5238 34.2628 19.2164 34.2183 18.9221 34.2819C18.6277 34.3454 18.3661 34.5128 18.1849 34.7533C17.3888 35.8112 16.6521 36.9124 15.9782 38.0521C16.1767 38.526 16.5147 39.0689 16.86 39.1713C17.1654 39.2619 17.585 38.9483 17.8124 38.7544C17.9944 38.5972 18.2313 38.5187 18.4711 38.5362C18.7109 38.5537 18.934 38.6658 19.0912 38.8477C19.2483 39.0297 19.3268 39.2666 19.3093 39.5064C19.2918 39.7462 19.1798 39.9693 18.9978 40.1265C18.4529 40.6557 17.7322 40.9658 16.9732 40.9974Z" fill="white" stroke="white" stroke-width="0.5"/>
<path d="M14.984 38.8597C14.8844 38.8595 14.7855 38.843 14.6913 38.8107C14.5381 38.7591 10.9258 37.4967 10.9258 34.6674C10.9257 34.5723 10.9404 34.4778 10.9693 34.3873C11.2972 33.4849 11.7463 32.6312 12.3042 31.8498C12.7194 31.3537 13.2928 31.0158 13.928 30.893C14.5632 30.7702 15.2212 30.87 15.7914 31.1756C16.3282 31.4134 16.7563 31.8439 16.9912 32.3819C17.226 32.92 17.2507 33.5266 17.0602 34.0819C16.4675 35.9905 15.8594 38.1718 15.8531 38.1945C15.7998 38.385 15.6857 38.5529 15.5282 38.6725C15.3706 38.7921 15.1782 38.8569 14.9803 38.8569L14.984 38.8597ZM12.7455 34.8078C12.8362 35.6561 13.7043 36.3013 14.4003 36.6883C14.6369 35.8618 14.9876 34.6592 15.332 33.5472C15.3636 33.4766 15.3797 33.4 15.3794 33.3226C15.379 33.2452 15.3622 33.1688 15.3299 33.0985C15.2977 33.0281 15.2508 32.9655 15.1924 32.9147C15.1339 32.864 15.0654 32.8262 14.9912 32.8041C14.804 32.6985 14.5896 32.6507 14.3753 32.6668C14.1609 32.683 13.9561 32.7623 13.7868 32.8947C13.3666 33.4898 13.0172 34.1319 12.7455 34.8078Z" fill="white" stroke="white" stroke-width="0.5"/>
<path d="M12.5757 34.0109C12.3933 34.0107 12.2151 33.9554 12.0646 33.8523L9.6875 32.2211C9.48909 32.0853 9.35275 31.8762 9.30847 31.6399C9.2642 31.4036 9.31562 31.1593 9.45142 30.9609C9.58722 30.7625 9.79627 30.6262 10.0326 30.5819C10.2689 30.5376 10.5131 30.5891 10.7116 30.7249L13.0887 32.3561C13.2488 32.4654 13.3696 32.6231 13.4335 32.8061C13.4974 32.9891 13.5008 33.1878 13.4435 33.373C13.3861 33.5581 13.2708 33.72 13.1146 33.8348C12.9584 33.9497 12.7696 34.0114 12.5757 34.0109Z" fill="white" stroke="white" stroke-width="0.5"/>
</svg>
