<svg width="58" height="58" viewBox="0 0 58 58" fill="none" xmlns="http://www.w3.org/2000/svg">
<path d="M42.6485 38.3215C42.44 38.233 42.2435 38.1505 42.0575 38.0665L41.2235 37.6885C39.7595 37.021 37.559 36.016 35.372 35.1686C35.3387 35.1478 35.3036 35.1303 35.267 35.1161C34.7705 34.9914 34.3282 34.7082 34.0072 34.3095C33.6862 33.9108 33.5039 33.4183 33.488 32.9066V32.0202H38.75C38.9489 32.0202 39.1397 31.9411 39.2803 31.8005C39.421 31.6598 39.5 31.4691 39.5 31.2702V15.4997C39.5 12.715 38.3938 10.0444 36.4246 8.07528C34.4555 6.10621 31.7848 5 29 5C26.2152 5 23.5445 6.10621 21.5754 8.07528C19.6062 10.0444 18.5 12.715 18.5 15.4997V31.2702C18.5 31.4691 18.579 31.6598 18.7197 31.8005C18.8603 31.9411 19.0511 32.0202 19.25 32.0202H24.5L24.5015 32.9051C24.4858 33.4172 24.3035 33.9102 23.9821 34.3093C23.6608 34.7083 23.218 34.9916 22.721 35.1161C22.6798 35.133 22.6401 35.1536 22.6025 35.1776C20.4245 36.0235 18.2345 37.0225 16.7765 37.6885L15.9425 38.068C15.758 38.1505 15.56 38.233 15.3515 38.3215C13.619 39.0489 11 40.1499 11 43.2503V52.25C11 52.4489 11.079 52.6397 11.2197 52.7803C11.3603 52.921 11.5511 53 11.75 53H46.25C46.4489 53 46.6397 52.921 46.7803 52.7803C46.921 52.6397 47 52.4489 47 52.25V43.2503C47 40.1484 44.381 39.0474 42.6485 38.32V38.3215ZM23 23.0159V17.0011C23 16.6033 23.158 16.2218 23.4393 15.9405C23.7206 15.6592 24.1022 15.5012 24.5 15.5012H25.163C25.178 15.5012 25.19 15.5102 25.2065 15.5102H30.4685C30.6577 15.5111 30.8401 15.4397 30.9785 15.3107L32.0435 14.3282L32.8775 15.2582C32.9477 15.3373 33.0339 15.4006 33.1303 15.444C33.2267 15.4874 33.3312 15.51 33.437 15.5102H34.25L34.2725 15.5057C34.4667 15.5115 34.6511 15.5925 34.7868 15.7315C34.9225 15.8706 34.9989 16.0569 35 16.2511V23.0174C35 24.6087 34.3679 26.1348 33.2426 27.2599C32.1174 28.3851 30.5913 29.0172 29 29.0172C27.4087 29.0172 25.8826 28.3851 24.7574 27.2599C23.6321 26.1348 23 24.6087 23 23.0174V23.0159ZM20 30.5187V15.4997C20 13.1128 20.9482 10.8237 22.636 9.13591C24.3239 7.44814 26.6131 6.49995 29 6.49995C31.3869 6.49995 33.6761 7.44814 35.364 9.13591C37.0518 10.8237 38 13.1128 38 15.4997V30.5202H33.4895L33.491 29.1567C33.4862 29.1068 33.4761 29.0576 33.461 29.0098C34.4004 28.3177 35.1645 27.4152 35.6923 26.3746C36.22 25.334 36.4967 24.1842 36.5 23.0174V16.2511C36.4992 15.6547 36.2619 15.0829 35.8401 14.6611C35.4183 14.2393 34.8465 14.002 34.25 14.0012C34.235 14.0012 34.2215 14.0087 34.205 14.0102H33.773L32.6555 12.7608C32.5892 12.6862 32.5085 12.6257 32.4183 12.5829C32.3281 12.5401 32.2302 12.5159 32.1305 12.5118C32.031 12.5022 31.9305 12.515 31.8366 12.5493C31.7426 12.5835 31.6575 12.6384 31.5875 12.7098L30.1775 14.0102H26.0435C26.03 14.0102 26.015 14.0012 26 14.0012H24.5C23.7047 14.0024 22.9423 14.3189 22.38 14.8812C21.8176 15.4435 21.5012 16.2059 21.5 17.0011V23.0159C21.503 24.1812 21.7786 25.3295 22.3047 26.3692C22.8308 27.409 23.5929 28.3112 24.53 29.0037C24.5138 29.0539 24.5033 29.1057 24.4985 29.1582V30.5202H20V30.5187ZM26.0015 32.9036L25.9985 29.8797C26.9418 30.2982 27.9623 30.5148 28.9943 30.5156C30.0263 30.5164 31.047 30.3013 31.991 29.8842L31.988 32.9051C31.9887 33.556 32.1646 34.1946 32.4971 34.7541C32.8297 35.3136 33.3066 35.7733 33.878 36.085L28.9955 41.3394L24.065 36.118C24.6495 35.8092 25.1386 35.3469 25.4798 34.7807C25.8211 34.2146 26.0014 33.5661 26.0015 32.9051V32.9036ZM12.5 43.2533C12.5 41.3034 13.988 40.5234 15.932 39.7059C16.1525 39.6129 16.3625 39.5259 16.5575 39.4374L17.4005 39.0549C18.7265 38.449 20.666 37.57 22.631 36.787L28.25 42.7373V51.503H12.5V43.2533ZM45.5 51.503H29.75V42.7343L35.303 36.76C37.0872 37.4812 38.8532 38.2464 40.5995 39.0549L41.4425 39.4374C41.6375 39.5259 41.8475 39.6129 42.068 39.7059C44.012 40.5204 45.5 41.3004 45.5 43.2503V51.5V51.503Z" fill="white" stroke="white" stroke-width="0.7"/>
</svg>
