<svg width="40" height="40" viewBox="0 0 40 40" fill="none" xmlns="http://www.w3.org/2000/svg">
<path d="M20.0035 3.84766C10.4896 3.84766 2.52172 9.35227 0.60128 16.6696C0.597764 16.6797 0.593368 16.6877 0.589851 16.6978C0.515126 16.9329 0.455346 17.2081 0.409632 17.5061C0.243265 18.3535 0.159065 19.2149 0.158203 20.0784C0.158203 29.0283 9.06018 36.3092 20.0035 36.3092C30.9477 36.3092 39.8488 29.0288 39.8488 20.0784C39.8483 11.1285 30.9463 3.84766 20.0035 3.84766ZM20.0035 34.3707C11.9578 34.3707 5.13535 30.1127 2.88524 24.2727C3.88831 24.7795 4.96084 24.6222 5.79952 24.4978C6.39205 24.4112 6.95161 24.3281 7.4048 24.4499C8.32568 24.6938 8.91601 25.8894 9.48699 27.0455C9.71117 27.4969 9.9226 27.925 10.1595 28.3118C11.6373 30.7127 14.091 31.525 16.4083 30.3874C16.7881 30.2024 17.1353 30.0077 17.4685 29.8239C18.6953 29.1408 19.4334 28.7277 20.8422 29.1386C21.5195 29.3347 22.1613 29.6244 22.8408 29.9321C24.112 30.5052 25.4246 31.0969 27.0316 31.0969C27.1402 31.0969 27.2509 31.0938 27.3622 31.0881C29.9213 30.9597 30.9644 29.5602 31.8852 28.3263C32.3705 27.6745 32.829 27.0582 33.516 26.565C33.8984 26.2903 34.4246 26.2402 35.0338 26.183C35.4259 26.1452 35.8619 26.1 36.3019 25.9883C33.48 30.9268 27.2373 34.3707 20.0035 34.3707ZM37.6391 22.5373C37.5988 22.5803 37.5627 22.6272 37.5314 22.6771C37.0606 23.427 36.5441 23.8863 35.9529 24.0758C35.6338 24.1778 35.2532 24.2147 34.851 24.2529C34.0738 24.3246 33.1942 24.4085 32.385 24.9896C31.4545 25.6591 30.8571 26.4595 30.3318 27.1668C29.4778 28.311 28.9129 29.0679 27.265 29.1501C25.9692 29.2204 24.8395 28.7052 23.6386 28.1633C22.9274 27.8419 22.1907 27.5105 21.3841 27.2749C19.2004 26.6411 17.8404 27.3971 16.5261 28.1281C16.2215 28.2969 15.9019 28.4745 15.5547 28.6472C13.5345 29.6362 12.265 28.0314 11.811 27.2951C11.6197 26.9848 11.4281 26.5962 11.2255 26.187C10.534 24.7874 9.67293 23.045 7.90282 22.5769C7.06414 22.3514 6.24304 22.4731 5.51644 22.5804C4.45447 22.7364 3.87513 22.794 3.36655 22.2345C2.37798 21.1501 2.11908 19.1655 2.31293 17.8569C3.65491 11.0274 11.0764 5.78612 20.0026 5.78612C29.876 5.78612 37.909 12.1971 37.909 20.0784C37.9082 20.9054 37.8177 21.7299 37.6391 22.5373Z" fill="#D71B4A"/>
<path d="M20.0036 12.5529C16.2946 12.5529 13.4972 14.2061 13.4972 16.3986C13.4972 17.7036 14.4915 18.8126 16.0739 19.5028C16.9337 19.9432 18.1315 20.1647 19.3109 20.2263L19.332 20.2276C19.5579 20.239 19.783 20.2461 20.0032 20.2461C20.2252 20.2461 20.4498 20.2381 20.6761 20.2276C20.6827 20.2276 20.6884 20.2263 20.695 20.2263C21.8748 20.1656 23.0735 19.9436 23.9328 19.5023C25.5148 18.8135 26.51 17.7045 26.51 16.3999C26.51 14.2065 23.7126 12.5529 20.0036 12.5529ZM20.0036 18.3067C18.8476 18.3067 17.8678 18.1111 17.1131 17.828C17.6423 17.6061 18.6445 17.3683 20.0036 17.3683C21.3645 17.3683 22.3663 17.6065 22.8933 17.8272C22.1399 18.1111 21.1605 18.3067 20.0036 18.3067ZM24.5394 16.5753C23.586 15.7516 21.6972 15.4298 20.0036 15.4298C18.3104 15.4298 16.4203 15.7511 15.4669 16.5753C15.4478 16.5181 15.4373 16.4584 15.4357 16.3981C15.4357 15.621 17.215 14.4909 20.0036 14.4909C22.7917 14.4909 24.5711 15.6206 24.5711 16.3981C24.5693 16.4584 24.5586 16.5181 24.5394 16.5753ZM10.1702 10.5828C9.99476 10.3948 9.75195 10.2842 9.49502 10.275C9.23809 10.2659 8.98803 10.359 8.79966 10.534L5.48669 13.6148C5.34449 13.7476 5.24551 13.9201 5.2026 14.1099C5.15969 14.2997 5.17484 14.498 5.24607 14.679C5.31731 14.8601 5.44135 15.0156 5.60207 15.1252C5.7628 15.2349 5.95278 15.2937 6.14735 15.294C6.38427 15.294 6.62032 15.2083 6.80713 15.0346L10.1201 11.9537C10.3085 11.7786 10.4197 11.5357 10.4291 11.2786C10.4385 11.0215 10.3454 10.7712 10.1702 10.5828ZM10.2753 19.5406C10.2046 19.4347 10.1139 19.3438 10.0081 19.273C9.90233 19.2022 9.78366 19.153 9.65886 19.128C9.53407 19.1031 9.40558 19.103 9.28075 19.1278C9.15591 19.1525 9.03717 19.2016 8.93131 19.2722C8.82544 19.3428 8.73452 19.4336 8.66374 19.5394C8.59296 19.6451 8.54371 19.7638 8.51879 19.8886C8.49387 20.0134 8.49378 20.1419 8.51851 20.2667C8.54325 20.3916 8.59233 20.5103 8.66296 20.6162L10.8722 23.93C11.0183 24.1352 11.2386 24.2754 11.4864 24.321C11.7341 24.3665 11.9899 24.3138 12.1995 24.174C12.409 24.0342 12.5559 23.8183 12.6091 23.5721C12.6622 23.3259 12.6173 23.0686 12.4841 22.8548L10.2753 19.5406Z" fill="#D71B4A"/>
<path d="M12.1552 14.3447L9.84616 15.1473C9.72592 15.1891 9.61509 15.2541 9.52 15.3388C9.42492 15.4234 9.34745 15.5259 9.29201 15.6405C9.23657 15.7551 9.20426 15.8795 9.19692 16.0066C9.18959 16.1337 9.20736 16.2609 9.24924 16.3811C9.31517 16.5714 9.43872 16.7364 9.60272 16.8532C9.76673 16.97 9.96305 17.0329 10.1644 17.033C10.2703 17.033 10.378 17.015 10.4826 16.9781L12.7925 16.1754C13.0284 16.0857 13.2199 15.9075 13.3265 15.6787C13.4331 15.45 13.4463 15.1887 13.3633 14.9504C13.2804 14.712 13.1078 14.5155 12.8822 14.4024C12.6566 14.2893 12.3958 14.2686 12.1552 14.3447ZM22.0572 21.8726C21.8935 21.6744 21.6579 21.5492 21.4021 21.5247C21.1462 21.5001 20.8911 21.5781 20.6928 21.7416C20.4945 21.9053 20.3694 22.141 20.3449 22.397C20.3204 22.6529 20.3986 22.9081 20.5622 23.1064L22.469 25.4154C22.5499 25.5138 22.6493 25.5952 22.7617 25.655C22.8741 25.7148 22.9972 25.7518 23.1239 25.7639C23.2506 25.7761 23.3785 25.7631 23.5002 25.7257C23.6218 25.6883 23.7349 25.6272 23.833 25.546C24.031 25.3822 24.156 25.1465 24.1804 24.8907C24.2048 24.6349 24.1266 24.3798 23.9631 24.1816L22.0572 21.8726ZM32.7815 17.8141L29.3679 19.7376C29.2571 19.7999 29.1596 19.8835 29.0811 19.9836C29.0026 20.0836 28.9447 20.1982 28.9105 20.3207C28.8764 20.4432 28.8668 20.5712 28.8822 20.6975C28.8976 20.8237 28.9378 20.9456 29.0004 21.0563C29.0627 21.1672 29.1462 21.2648 29.2462 21.3434C29.3462 21.422 29.4607 21.4801 29.5832 21.5144C29.7056 21.5488 29.8337 21.5586 29.96 21.5435C30.0862 21.5283 30.2083 21.4884 30.3191 21.426L33.7328 19.5033C33.9569 19.3772 34.1217 19.1671 34.1911 18.9194C34.2604 18.6717 34.2285 18.4067 34.1024 18.1825C34.04 18.0714 33.9564 17.9737 33.8561 17.895C33.7559 17.8164 33.6412 17.7583 33.5185 17.724C33.3958 17.6898 33.2675 17.6801 33.141 17.6956C33.0146 17.7111 32.8924 17.7513 32.7815 17.8141ZM30.6075 14.5469C30.635 14.6724 30.6872 14.7913 30.7611 14.8965C30.835 15.0017 30.9291 15.0911 31.0379 15.1596C31.1467 15.2281 31.268 15.2742 31.3948 15.2954C31.5216 15.3165 31.6513 15.3122 31.7765 15.2828C31.9016 15.2533 32.0196 15.1992 32.1236 15.1237C32.2277 15.0482 32.3156 14.9527 32.3824 14.8429C32.4492 14.733 32.4935 14.611 32.5126 14.4839C32.5318 14.3568 32.5255 14.2271 32.4941 14.1025L31.3903 9.41367C31.3613 9.28969 31.3081 9.17266 31.2338 9.06929C31.1595 8.96593 31.0654 8.87826 30.9571 8.81132C30.8488 8.74439 30.7283 8.6995 30.6026 8.67923C30.4769 8.65896 30.3485 8.66372 30.2246 8.69323C30.1007 8.72218 29.9838 8.77532 29.8804 8.84959C29.7771 8.92387 29.6895 9.01782 29.6226 9.12606C29.5557 9.23429 29.5109 9.35467 29.4906 9.48029C29.4704 9.60591 29.4751 9.73429 29.5046 9.85806L30.6075 14.5469ZM26.2752 7.4374L23.6932 9.24444C23.4843 9.39257 23.3425 9.61735 23.2988 9.86967C23.2551 10.122 23.3131 10.3814 23.46 10.5911C23.6069 10.8009 23.8309 10.9439 24.0829 10.9891C24.335 11.0343 24.5947 10.9778 24.8053 10.8321L27.3873 9.0251C27.4923 8.95241 27.582 8.85967 27.6511 8.75221C27.7202 8.64476 27.7673 8.5247 27.7899 8.39895C27.8124 8.27319 27.8098 8.14423 27.7824 8.01946C27.7549 7.8947 27.703 7.77661 27.6297 7.67197C27.5564 7.56733 27.4631 7.47821 27.3553 7.40974C27.2474 7.34127 27.1271 7.2948 27.0012 7.273C26.8753 7.2512 26.7464 7.25451 26.6218 7.28272C26.4972 7.31093 26.3794 7.3635 26.2752 7.4374ZM14.4976 9.00312L17.4101 11.2123C17.5114 11.2894 17.6268 11.3458 17.7499 11.3781C17.873 11.4104 18.0012 11.4181 18.1273 11.4007C18.2533 11.3833 18.3747 11.3412 18.4844 11.2767C18.5941 11.2122 18.69 11.1267 18.7666 11.0251C18.8436 10.9238 18.8999 10.8083 18.9323 10.6852C18.9646 10.5622 18.9724 10.4339 18.9551 10.3079C18.9378 10.1818 18.8959 10.0604 18.8316 9.95051C18.7674 9.84067 18.6821 9.74458 18.5807 9.66773L15.6681 7.4585C15.4627 7.31429 15.2093 7.25539 14.9612 7.29419C14.7132 7.33299 14.4899 7.46646 14.3383 7.66654C14.1867 7.86662 14.1185 8.1177 14.1482 8.36697C14.178 8.61625 14.3032 8.84429 14.4976 9.00312ZM15.4264 22.684L13.9209 24.0906C13.8277 24.1773 13.7526 24.2816 13.6998 24.3974C13.647 24.5132 13.6176 24.6383 13.6133 24.7655C13.609 24.8927 13.6298 25.0196 13.6746 25.1387C13.7194 25.2578 13.7872 25.367 13.8743 25.4598C13.9649 25.557 14.0745 25.6344 14.1963 25.6873C14.3182 25.7401 14.4496 25.7673 14.5824 25.7671C14.8193 25.7671 15.0572 25.6814 15.2435 25.5064L16.749 24.1003C16.8422 24.0135 16.9173 23.9092 16.9701 23.7933C17.0229 23.6775 17.0523 23.5523 17.0566 23.4251C17.061 23.2979 17.0401 23.171 16.9953 23.0518C16.9506 22.9326 16.8827 22.8235 16.7956 22.7306C16.7089 22.6375 16.6046 22.5624 16.4888 22.5096C16.3729 22.4569 16.2479 22.4275 16.1207 22.4232C15.9935 22.4189 15.8667 22.4397 15.7475 22.4844C15.6284 22.5292 15.5193 22.597 15.4264 22.684Z" fill="#D71B4A"/>
</svg>
