<svg width="170" height="67" viewBox="0 0 170 67" fill="none" xmlns="http://www.w3.org/2000/svg">
<path fill-rule="evenodd" clip-rule="evenodd" d="M108.516 27.5532C108.505 30.9286 109.102 31.9369 111.209 34.1687C114.733 37.798 119.406 33.3969 121.864 30.9953C123.509 28.177 124.187 26.444 123.501 22.8834C123.361 22.1453 123.458 22.3221 123.108 21.5693C122.462 20.1801 122.186 19.55 120.944 18.5895L120.03 17.9834C119.609 17.7729 118.718 17.0839 117.733 17.2726C116.601 17.4887 116.484 18.337 116.981 19.4167C117.355 20.2299 118.175 23.3064 118.418 24.3981C118.921 26.6215 119.623 31.7846 117.068 33.3464C114.955 34.638 112.804 33.8873 111.599 31.5075C111.383 31.0802 111.228 30.8494 111.19 30.2509C111.167 29.8868 111.283 29.1676 111.405 28.8477C111.68 28.1271 112.239 27.4045 112.675 26.8369C114.684 24.2248 115.441 18.9432 112.559 19.5816C111.724 19.7668 110.561 21.6085 110.165 22.3235L109.049 24.6107C108.859 25.0871 108.518 26.926 108.514 27.5525L108.516 27.5532ZM76.656 27.5525C76.6497 29.3065 76.7263 30.5224 77.4894 31.739C77.8148 32.2568 77.6729 32.3487 78.1015 32.8461L79.3516 34.1708C81.23 36.1058 85.4351 35.2709 86.9628 33.968L90.0062 30.9974C91.652 28.1791 92.3294 26.4461 91.6436 22.8855C91.503 22.1474 91.6007 22.3242 91.2507 21.5714C90.6042 20.1822 90.3281 19.5521 89.0864 18.5916L88.1728 17.9855C87.7512 17.775 86.8609 17.086 85.8757 17.2747C84.7436 17.4908 84.6269 18.3391 85.123 19.4188C85.4969 20.232 86.3177 23.3085 86.5608 24.4002C87.0675 26.6236 87.7702 31.7853 85.213 33.3485C83.0999 34.6401 80.9482 33.8894 79.7438 31.5096C79.5273 31.0823 79.3727 30.8515 79.3348 30.253C79.3116 29.8889 79.4275 29.1697 79.5498 28.8498C79.8246 28.1292 80.3832 27.4066 80.8203 26.839C82.8287 24.2269 83.5862 18.9453 80.7037 19.5837C79.8681 19.7689 78.7058 21.6106 78.3102 22.3256L77.1936 24.6128C77.0039 25.0878 76.6623 26.9281 76.6581 27.5532L76.656 27.5525ZM63.6052 28.4604C64.2095 26.8271 65.1814 25.3193 65.7485 23.7547C65.9923 23.0826 66.1701 22.7129 66.4048 22.106C67.9374 18.1279 66.0745 16.658 64.4955 19.3375C63.6326 20.801 62.9903 22.461 62.2468 23.9512L59.696 27.6943C59.6791 27.716 59.6517 27.7504 59.6341 27.7742C58.9635 28.6709 58.1403 29.4429 57.202 30.0551C56.8064 30.3147 56.0538 30.8269 55.8549 30.1043C55.5148 28.8624 58.6658 23.9301 59.1879 22.348C59.8787 20.3253 60.9229 17.8304 58.8843 16.202C57.9005 15.419 56.3862 15.3825 55.3194 15.901C54.2527 16.4195 52.7089 18.2864 54.2654 19.1186C54.4827 19.231 54.7234 19.2908 54.9681 19.2933C56.1184 19.3024 57.5063 16.4868 58.398 17.5961C58.9174 18.2408 57.9012 20.6045 57.5906 21.2998C56.3131 24.1568 52.1895 29.3451 51.3997 31.5706C50.0582 35.3487 52.9379 36.2812 55.4424 34.4633C56.3208 33.827 57.5583 32.5571 58.2069 31.645L60.034 29.3248C60.4387 28.8449 60.7437 28.0514 61.36 27.8458C61.2019 28.8238 60.8618 29.3192 60.5758 30.293C60.3439 31.0851 59.9609 32.0624 59.9026 32.811C59.6622 35.9248 62.0107 35.7781 64.0549 34.3448C64.3852 34.1125 64.6108 33.8768 65.0092 33.573C66.1898 32.6728 68.5663 28.988 69.0892 27.6094C69.2135 28.2955 68.6928 29.8762 68.4567 30.7378C66.1462 39.1865 73.4636 33.8066 72.1326 32.5781C71.2247 31.7362 71.4355 31.9712 71.314 30.7154C71.3315 29.0406 72.0806 27.3231 72.7046 25.9788C73.1087 25.1088 75.2414 22.1902 75.7263 21.3482C79.1219 16.5423 84.5848 14.0635 90.742 17.9721C97.2702 22.5676 92.4861 33.8403 93.2872 34.6001C93.9197 34.9018 95.2225 34.7489 95.817 34.5517C96.0382 34.0234 96.1935 33.4699 96.2794 32.9037C96.3953 32.1796 96.6567 31.6197 96.7818 31.0963C97.1992 29.5023 98.0263 26.571 99.2462 29.9492L100.109 32.2042C101.607 35.8202 106.063 36.4545 107.305 33.232C107.625 32.3999 107.881 31.4036 107.52 30.5329C106.832 28.8729 104.507 28.9361 105.009 31.1363C105.37 31.7376 106.029 31.6639 106.287 32.3466C106.538 33.0089 106.086 33.7007 105.514 33.8621C105.233 33.942 105.023 33.8543 104.759 33.7316C103.494 33.1457 102.668 30.0131 101.988 28.8975C101.97 28.868 101.95 28.8309 101.933 28.8021C101.248 27.6585 99.71 27.1849 98.2955 27.1182C99.2547 25.1832 102.421 18.2549 105.042 19.5606C108.183 21.1272 101.693 25.8988 103.297 26.7513C104.678 27.4852 106.875 25.219 107.68 24.1806C108.296 23.2075 108.641 22.7837 108.715 21.3854C108.769 20.3934 108.835 19.3901 108.282 18.6351C106.323 15.9634 103.34 18.3777 102.759 18.6225L102.197 18.9803C101.898 19.2778 101.579 19.6412 101.3 19.9394C100.638 20.6495 97.8647 26.1332 98.5766 23.6579L99.4845 20.5975C99.6826 20.0363 99.845 19.4343 100.06 18.8512L101.669 14.8654C102.506 12.5347 100.922 10.7133 99.0544 11.1168C96.2393 11.7244 103.903 18.6015 93.1193 16.6545C86.3029 14.9244 83.4471 11.544 75.9645 16.7948C72.5838 17.9139 59.2343 40.2845 63.6052 28.4604Z" fill="#660000"/>
<path d="M49.5255 15.0977C46.7113 15.2908 44.1977 15.4354 41.9846 15.5312C39.7715 15.6271 37.584 15.6753 35.422 15.6758C34.2545 15.6758 33.0875 15.666 31.921 15.6463C30.7545 15.6267 29.5365 15.5883 28.2669 15.5312C26.9969 15.4728 25.6671 15.4054 24.2776 15.3292C22.8881 15.2529 21.4042 15.1758 19.8259 15.0977C22.3992 16.9461 24.4237 19.3241 25.8995 22.2316C27.3752 25.139 28.3355 28.3835 28.7806 31.9649C28.8495 32.5047 28.901 33.1017 28.9352 33.7561C28.9694 34.4105 28.9867 35.1037 28.9872 35.8357C28.9853 36.7907 28.9337 37.745 28.8326 38.6947C28.7374 39.6407 28.566 40.5776 28.3203 41.4962C28.0956 42.3419 27.7663 43.1565 27.34 43.9209C26.9287 44.6529 26.4134 45.2306 25.794 45.6539C26.5839 44.3442 26.9786 43.0156 26.9781 41.6681C26.9781 40.8215 26.8322 40.0899 26.5403 39.4735C26.2688 38.8847 25.8842 38.3548 25.4083 37.9138C24.9535 37.4952 24.4198 37.1711 23.8384 36.9603C23.2611 36.7499 22.6512 36.6423 22.0366 36.6425C21.1784 36.6425 20.4234 36.8256 19.7718 37.1919C19.1311 37.5475 18.5774 38.0407 18.1506 38.6358C17.7133 39.2503 17.3827 39.9338 17.1724 40.6578C16.9483 41.4173 16.8356 42.2052 16.8379 42.9969C16.8379 44.9614 17.3699 46.4816 18.4338 47.5574C19.4977 48.6331 20.768 49.175 22.2446 49.183C23.8697 49.1893 25.4552 48.6824 26.7743 47.7349C28.1465 46.7723 29.3645 45.5594 30.4285 44.0963C31.5608 42.5556 32.5301 40.7841 33.3363 38.7817C34.141 36.785 34.82 34.74 35.3693 32.6588C35.903 30.6552 36.3072 28.6194 36.5793 26.564C36.8356 24.5812 36.9637 22.8195 36.9637 21.2788C37.3555 23.3585 37.6137 25.461 37.7367 27.5736C37.874 29.8075 37.9426 32.0217 37.9426 34.2164C37.9079 36.7969 37.8049 39.3098 37.6334 41.7551C37.4571 44.2341 37.0959 46.6966 36.5526 49.1219C37.8573 48.9288 39.033 48.7746 40.0796 48.6596C41.0623 48.5476 42.0504 48.4898 43.0394 48.4863C44.0116 48.4848 44.9829 48.5426 45.948 48.6596C46.8919 48.7746 47.9298 48.9491 49.0617 49.183C48.8902 46.1787 48.753 43.5888 48.6499 41.4134C48.5468 39.238 48.4953 37.1098 48.4953 35.0288C48.4953 33.7192 48.5126 32.3714 48.5473 30.9855C48.582 29.5996 48.6419 28.1168 48.7272 26.5373C48.8129 24.9587 48.9244 23.2353 49.0617 21.3672C49.199 19.4991 49.3535 17.4099 49.5255 15.0998" fill="#D71B4A"/>
<path d="M134.019 38.8392C134.029 38.2012 134.081 37.5645 134.172 36.933C134.274 36.1678 134.447 35.4137 134.688 34.6801C134.902 33.9986 135.224 33.3553 135.64 32.7739C136.035 32.235 136.541 31.9654 137.158 31.9649C137.674 31.9649 138.077 32.1576 138.368 32.543C138.675 32.9598 138.902 33.4299 139.037 33.9294C139.193 34.4768 139.296 35.0378 139.346 35.6048C139.397 36.1825 139.423 36.6638 139.423 37.0487C139.423 37.4725 139.397 38.0693 139.346 38.8392C139.294 39.6108 139.165 40.3752 138.959 41.1208C138.779 41.8152 138.492 42.4777 138.11 43.0853C137.75 43.6424 137.261 43.9209 136.643 43.9209C136.402 43.9267 136.162 43.8808 135.94 43.7861C135.718 43.6915 135.519 43.5503 135.357 43.3723C135 42.9856 134.721 42.5349 134.533 42.0442C134.325 41.5153 134.187 40.9618 134.121 40.3975C134.056 39.8801 134.022 39.3593 134.019 38.8378V38.8392ZM131.857 17.93C132.336 17.6908 132.867 17.5718 133.403 17.5834C134.035 17.5791 134.659 17.7172 135.23 17.9876C135.767 18.2354 136.249 18.5891 136.645 19.0273C137.14 19.5896 137.532 20.2344 137.803 20.9322C138.102 21.6882 138.327 22.4717 138.473 23.2713C138.629 24.1114 138.732 24.9604 138.782 25.8133C138.834 26.6795 138.859 27.498 138.859 28.2689C138.858 29.0397 138.755 29.5596 138.55 29.8285C138.344 30.0979 138.053 30.2327 137.675 30.2327C137.194 30.2327 136.62 30.0979 135.951 29.8285C135.289 29.5605 134.581 29.4232 133.866 29.4244C132.595 29.4247 131.34 29.7004 130.186 30.2327C129.018 30.7609 127.961 31.5059 127.071 32.428C126.153 33.3933 125.42 34.5192 124.91 35.7494C124.354 37.0752 124.074 38.5 124.086 39.9372C124.079 41.1653 124.279 42.3859 124.678 43.5477C125.041 44.6283 125.609 45.6288 126.351 46.4944C127.06 47.3137 127.926 47.9819 128.899 48.4589C129.899 48.9459 130.999 49.1938 132.111 49.183C133.827 49.183 135.345 48.817 136.666 48.085C137.987 47.353 138.941 46.6198 139.526 45.8854C139.663 46.1537 139.733 46.4508 139.732 46.7519C139.729 47.1213 139.686 47.4892 139.603 47.8492C139.517 48.2346 139.44 48.6776 139.371 49.1781C140.229 49.0237 141.087 48.8986 141.945 48.8027C142.782 48.7073 143.624 48.659 144.467 48.6582C145.336 48.6566 146.204 48.7048 147.067 48.8027C147.911 48.8986 148.777 49.0237 149.667 49.1781C149.496 48.4077 149.299 47.4834 149.076 46.4053C148.853 45.3272 148.741 44.3644 148.74 43.5168C148.74 42.6702 148.784 41.7556 148.87 40.7728C148.956 39.7901 149.042 38.7985 149.127 37.798C149.213 36.7971 149.298 35.8343 149.384 34.9095C149.47 33.9848 149.513 33.1569 149.513 32.4259C149.513 30.0404 149.273 27.7876 148.792 25.6673C148.312 23.5471 147.53 21.7086 146.447 20.152C145.371 18.5968 143.931 17.3278 142.252 16.4553C140.536 15.5502 138.443 15.0977 135.972 15.0977C134.941 15.0977 133.826 15.2805 132.626 15.6463C131.447 16.0018 130.334 16.5483 129.332 17.2642C128.342 17.9739 127.496 18.866 126.841 19.8924C126.172 20.9322 125.837 22.1249 125.837 23.4706C125.837 24.9341 126.291 26.0703 127.201 26.879C128.11 27.6877 129.165 28.0921 130.367 28.0921C131.006 28.0947 131.639 27.9567 132.22 27.6879C133.409 27.1434 134.341 26.1599 134.82 24.944C135.08 24.2918 135.211 23.5953 135.206 22.8932C135.206 21.5835 134.88 20.5631 134.228 19.8321C133.544 19.076 132.743 18.4335 131.857 17.9286V17.93Z" fill="#D71B4A"/>
<path d="M113.575 49.9413C113.589 49.4663 113.604 48.9892 113.634 48.51C113.634 48.0385 113.641 47.5656 113.679 47.0886C113.689 46.5751 113.726 46.0625 113.789 45.5527C113.841 45.1528 113.833 44.8855 113.789 44.7438C113.7 44.3383 113.424 44.0176 112.946 43.7566C112.442 43.4809 111.912 43.258 111.363 43.0915C110.23 43.41 109.617 43.7531 109.535 44.1215C109.38 45.244 109.243 46.3624 109.151 47.4843C109.059 48.6061 109.018 49.7336 108.988 50.8702C106.362 51.3613 103.773 51.7949 101.188 52.1752C101.232 52.0819 101.269 51.9872 101.314 51.8945C101.35 49.8234 101.403 47.7481 101.58 45.6797C101.757 43.6114 102.068 41.5354 102.416 39.4579C102.319 39.3534 102.064 39.2706 101.669 39.2102C101.273 39.1499 101.036 39.0643 100.936 38.9563C100.714 38.7289 101.232 38.4651 102.52 38.167C103.732 37.8639 104.946 37.5229 106.181 37.1237C107.409 36.7246 108.662 36.4026 109.931 36.1597C110.149 36.1087 110.373 36.0866 110.597 36.0937C110.796 36.1017 110.997 36.0973 111.196 36.0804C111.01 37.0402 110.763 38.0028 110.523 38.9619C110.282 39.921 110.031 40.8815 109.82 41.8385C110.36 41.6722 110.776 41.4561 111.055 41.2126C111.353 40.9537 111.684 40.6969 112.032 40.4191C112.963 39.7306 113.651 39.0907 114.095 38.4995C114.554 37.9039 115.412 37.2759 116.695 36.6108C117.64 36.1269 118.61 35.6943 119.602 35.3149C120.648 34.9108 121.541 34.6414 122.287 34.5102C122.924 34.3984 123.205 34.4566 123.13 34.6849C123.094 34.8456 123.056 35.0476 122.997 35.282C122.939 35.5163 122.886 35.7534 122.849 35.9836C122.779 36.3434 122.688 36.6988 122.576 37.0479C122.469 37.3938 122.191 37.6744 121.762 37.8898C121.451 38.063 121.109 38.1749 120.756 38.2196C120.443 38.2495 120.136 38.3273 119.846 38.4504C118.855 38.8166 117.871 39.2348 116.895 39.7049C115.88 40.1929 114.92 40.788 114.032 41.4799C114.159 41.5477 114.305 41.5702 114.447 41.5438C117.095 41.3473 118.988 41.5143 120.113 42.0784C120.808 42.3675 121.056 43.0003 120.882 43.9889C120.767 44.6628 120.743 45.349 120.811 46.0291C120.884 46.725 120.892 47.4262 120.834 48.1234C118.385 48.7904 115.968 49.3968 113.585 49.9427L113.575 49.9413ZM84.9636 40.6752C84.8821 41.9647 84.8378 43.2508 84.8153 44.534C86.5468 44.2218 87.8658 43.65 88.7955 42.8502C89.7442 42.0321 89.7273 41.3824 88.6767 40.8801C87.4934 40.3263 86.2556 40.258 84.9636 40.6752ZM98.0046 47.4548C97.9498 48.9366 97.1845 50.1062 95.6596 50.9418C94.1516 51.7683 92.8792 52.4411 91.8425 52.9603C91.5466 53.0417 91.2438 53.1252 90.9697 53.2044C90.7589 53.215 90.43 53.1406 89.9789 52.9876C89.4043 52.7559 88.8459 52.4864 88.3071 52.1808C87.6564 51.8195 87.1012 51.5157 86.6129 51.2687C86.5468 51.2357 86.5686 51.1719 86.6831 51.0786C86.8089 50.9874 86.8307 50.9333 86.7534 50.9158C88.0478 50.2486 88.9923 49.6845 89.572 49.2362C90.1517 48.7878 90.4153 48.1676 90.3408 47.386C90.3113 46.7188 89.9332 46.2929 89.1946 46.0986C88.5074 45.9124 87.7985 45.8181 87.0865 45.818C86.7759 45.818 86.4203 45.8313 86.0507 45.8474C85.6811 45.8636 85.2369 45.8706 84.7345 45.8664C84.7493 47.0128 84.7753 48.1641 84.8006 49.3126C84.8259 50.4612 84.823 51.6111 84.823 52.7568C84.6493 52.7622 84.4799 52.8122 84.3311 52.902C84.2183 52.9797 84.0838 53.0197 83.9468 53.0164C82.7852 53.048 81.8309 53.0269 81.0986 52.9568C80.3664 52.8866 79.3903 52.7919 78.2217 52.6761C78.0657 52.5653 77.9034 52.453 77.7558 52.3387C77.6856 50.3082 77.5668 48.2806 77.4298 46.2473C77.2927 44.2141 77.2154 42.185 77.2077 40.1504C77.1374 40.0802 76.831 39.9645 76.3054 39.8052C75.8118 39.6614 75.3392 39.4534 74.9 39.1864C74.212 38.8356 74.2415 38.6146 74.9963 38.5255C77.8071 38.1915 80.6229 37.8236 83.4436 37.4219C83.9243 37.4801 84.4049 37.5362 84.901 37.5888C84.8786 38.141 84.842 38.6939 84.8118 39.2467C84.9879 39.1984 85.1726 39.1905 85.3522 39.2236C85.5118 39.2562 85.6771 39.2482 85.8328 39.2004C87.0092 38.9093 87.9557 38.6083 88.629 38.2982C89.3022 37.9881 89.8791 37.7369 90.3597 37.5439C90.7602 37.3725 91.1892 37.2773 91.6246 37.2633C92.3274 37.3615 93.4868 37.6246 95.0862 38.0231C96.6751 38.4195 97.557 39.1015 97.7488 40.0922C97.8746 40.7734 97.4431 41.4196 96.4326 42.0433C95.4383 42.6565 94.2359 43.3195 92.8228 44.0176C94.9534 44.4575 96.3532 44.9999 97.0313 45.6811C97.7095 46.3624 98.0236 46.9384 98.0046 47.4548ZM63.757 42.0973C60.7311 42.5976 59.4093 43.5419 59.7403 44.9873C59.838 45.4138 60.0916 45.8636 60.502 46.335C61.0226 46.974 61.7591 47.4009 62.5729 47.5355C62.965 47.6056 63.5497 47.5523 64.3297 47.3762C64.2412 46.4978 64.1426 45.6192 64.0339 44.7403C63.9306 43.8605 63.8378 42.9772 63.757 42.0973ZM74.4228 50.5973C74.1122 50.6941 73.7644 50.8028 73.3505 50.9172C72.8994 51.0456 72.411 51.1614 71.8748 51.2722C70.5579 51.5398 69.6554 51.6333 69.1672 51.5529C68.6346 51.4694 67.7885 51.0498 66.5854 50.3061C65.3697 49.5547 64.6776 49.173 64.537 49.1485C64.1822 49.086 63.2419 49.1969 61.7114 49.4509C60.1507 49.6487 59.0846 49.6768 58.5379 49.5498C56.8584 49.1597 55.3645 48.2701 53.9703 46.9202C52.8164 45.8678 52.1538 44.9957 51.9514 44.2695C51.749 43.5434 52.1713 42.933 53.2528 42.392C54.361 41.8378 56.1157 41.3158 58.5569 40.8485C61.197 40.3055 62.7507 39.8733 63.1871 39.5723C63.4014 39.4502 63.5054 39.3197 63.49 39.1787C63.4197 38.496 62.6467 38.1038 61.1527 38.0035C59.7333 37.9081 58.4311 38.0154 57.2477 38.3157C56.5963 38.4848 55.6716 38.8159 54.4805 39.293C54.2739 39.2776 54.0588 39.2622 53.8592 39.2446C53.4749 39.1941 53.0827 39.1457 52.6906 39.0938C52.6021 38.6609 52.5086 38.2238 52.4391 37.7902C52.3819 37.4422 52.3746 37.0879 52.4173 36.7378C52.428 36.3933 52.5058 36.0542 52.6464 35.7394C55.6352 35.7745 58.626 35.8372 61.6186 35.9274C65.3983 36.1178 68.0736 36.6466 69.6444 37.5138C71.0646 38.3262 71.7989 39.5133 71.9008 41.0625C71.9008 41.0934 71.9008 41.1383 71.9008 41.1846C72.0041 42.5408 72.1151 43.897 72.2704 45.2497C72.4257 46.6023 72.5663 47.9606 72.6998 49.319C73.269 49.7448 73.8459 50.1742 74.4228 50.5966V50.5973Z" fill="#D71B4A"/>
<path fill-rule="evenodd" clip-rule="evenodd" d="M17.8732 24.498C15.5914 24.6825 5.43508 26.0745 6.12726 21.5828C6.89533 16.5916 21.1007 11.2692 25.3718 9.84848C52.886 0.709392 86.2046 1.42012 114.373 7.44409C125.429 9.80849 136.139 13.0183 146.718 16.9971C122.793 8.12604 97.6343 3.09905 72.0561 3.34602C54.3814 3.51721 30.5755 6.73126 14.7847 15.2101C13.1284 16.0991 6.52008 19.9193 7.2235 22.2262C7.93816 24.5688 15.9836 23.3691 17.6532 23.0225C17.8444 23.0025 18.0359 23.0569 18.188 23.1743C18.34 23.2917 18.4409 23.4632 18.4696 23.6529C18.4982 23.8427 18.4526 24.0362 18.342 24.1932C18.2315 24.3502 18.0645 24.4586 17.876 24.4959L17.8732 24.498ZM16.4066 26.9515C12.8768 26.9431 0.28136 27.8825 0.0044894 22.6787C-0.307517 16.8063 15.7313 10.3894 20.6763 8.61647C47.8827 -1.13583 81.2989 -2.39871 109.381 3.75996C117.698 5.58413 124.356 7.75911 132.245 10.6223C137.91 12.6795 143.593 14.6832 149.312 16.586C142.617 14.3893 135.987 12.0557 129.359 9.66747C102.351 -0.0644778 72.5087 -2.0423 44.3087 3.08853C32.6977 5.20036 13.3048 10.4168 4.18003 18.0025C-6.08666 26.5375 11.4363 26.1671 16.2956 25.4697C16.4909 25.4594 16.6824 25.526 16.8291 25.6551C16.9757 25.7843 17.0658 25.9657 17.08 26.1604C17.0942 26.3552 17.0313 26.5477 16.9048 26.6966C16.7784 26.8456 16.5985 26.9391 16.4038 26.9571L16.4066 26.9515Z" fill="#D71B4A"/>
<path fill-rule="evenodd" clip-rule="evenodd" d="M150.02 37.0803C152.69 36.8228 163.845 35.2092 163.126 40.3919C162.4 45.6188 149.169 51.4351 144.446 53.2628C118.291 63.382 85.8065 64.4352 58.1392 60.3181C39.9852 57.617 22.51 52.6749 5.4762 45.8756C33.1056 56.7708 62.4279 62.8797 92.2005 62.1304C111.314 61.6491 136.612 57.6984 153.498 48.0899C155.427 46.9926 162.836 42.4567 162.025 39.6075C161.207 36.7401 152.253 38.1341 150.257 38.5551C150.061 38.5865 149.861 38.5389 149.7 38.4229C149.54 38.3069 149.432 38.132 149.401 37.9366C149.369 37.7413 149.417 37.5414 149.533 37.3811C149.649 37.2208 149.824 37.1131 150.02 37.0817V37.0803ZM151.665 34.1525C155.877 34.1146 169.693 33.0798 169.995 39.115C170.317 45.5157 154.629 52.6559 149.277 54.8379C122.715 65.6609 89.422 68.4154 61.073 64.2296C47.6048 62.2398 35.9797 58.9865 23.2985 54.0767C16.4217 51.4106 9.51963 48.821 2.56836 46.3646C10.0874 48.9872 17.5186 51.767 24.9506 54.6169C56.6614 66.7687 92.1816 68.8679 125.264 61.487C137.074 58.8518 156.967 52.6777 165.917 44.2921C176.373 34.4935 157.429 34.8499 151.78 35.642C151.683 35.6496 151.584 35.6378 151.491 35.6074C151.398 35.5771 151.311 35.5286 151.237 35.4649C151.162 35.4012 151.101 35.3234 151.057 35.2361C151.012 35.1488 150.985 35.0535 150.978 34.9559C150.97 34.8582 150.982 34.76 151.012 34.6669C151.043 34.5738 151.091 34.4875 151.155 34.4131C151.219 34.3387 151.297 34.2776 151.384 34.2333C151.472 34.1889 151.567 34.1622 151.665 34.1546V34.1525Z" fill="#660000"/>
</svg>
