<svg width="16" height="16" viewBox="0 0 16 16" fill="none" xmlns="http://www.w3.org/2000/svg">
<g clip-path="url(#clip0_384_416)">
<path fill-rule="evenodd" clip-rule="evenodd" d="M15.2727 11.5775V13.7594C15.2735 13.9619 15.232 14.1624 15.1509 14.348C15.0697 14.5336 14.9507 14.7002 14.8015 14.8371C14.6522 14.974 14.476 15.0783 14.2841 15.1431C14.0923 15.208 13.8889 15.2321 13.6872 15.2139C11.4493 14.9707 9.29959 14.206 7.41086 12.9812C5.65364 11.8646 4.16383 10.3748 3.04722 8.61754C1.81812 6.72024 1.05322 4.56008 0.814497 2.31209C0.796323 2.11097 0.820224 1.90828 0.884679 1.71691C0.949134 1.52553 1.05273 1.34968 1.18887 1.20054C1.32501 1.0514 1.49072 0.93224 1.67544 0.850649C1.86015 0.769058 2.05984 0.726823 2.26177 0.726633H4.44359C4.79654 0.723159 5.13871 0.848145 5.40632 1.07829C5.67394 1.30844 5.84873 1.62805 5.89813 1.97754C5.9905 2.67572 6.16068 3.36154 6.40722 4.02118C6.50507 4.28149 6.52625 4.56439 6.46825 4.83636C6.41024 5.10834 6.27549 5.35799 6.07995 5.55572L5.15631 6.47936C6.19163 8.30012 7.69919 9.80768 9.51995 10.843L10.4436 9.91936C10.6413 9.72382 10.891 9.58907 11.1629 9.53107C11.4349 9.47306 11.7178 9.49424 11.9781 9.59209C12.6378 9.83863 13.3236 10.0088 14.0218 10.1012C14.3751 10.151 14.6977 10.329 14.9283 10.6012C15.159 10.8734 15.2815 11.2209 15.2727 11.5775Z" stroke="#D71B4A" stroke-width="1.5" stroke-linecap="round" stroke-linejoin="round"/>
</g>
<defs>
<clipPath id="clip0_384_416">
<rect width="16" height="16" fill="white"/>
</clipPath>
</defs>
</svg>
