<svg width="56" height="56" viewBox="0 0 56 56" fill="none" xmlns="http://www.w3.org/2000/svg">
<g clip-path="url(#clip0_348_501)">
<path d="M3.27965 42.0847C3.87782 42.6833 4.7024 42.9763 5.54579 42.8798L7.96571 42.6111C8.305 42.573 8.62535 42.6991 8.8475 42.9542C9.07139 43.2101 9.15254 43.5459 9.07051 43.8754L8.65095 45.5532C8.41601 46.4918 8.69535 47.5006 9.37982 48.1854L10.2566 49.0617C10.7821 49.5877 11.4794 49.8744 12.2108 49.8744C12.3253 49.8744 12.4398 49.8671 12.5551 49.853C13.4088 49.7479 14.1522 49.2651 14.6341 48.4538L18.239 40.8796C19.0706 41.5614 20.0905 41.9511 21.1803 41.9511C22.4278 41.9511 23.6002 41.4654 24.4829 40.5831L40.5832 24.4823C41.4659 23.6005 41.9513 22.4277 41.9513 21.1801C41.9513 20.3107 41.7021 19.4843 41.2604 18.7607L48.7138 14.4728C49.3786 13.9981 49.7981 13.2594 49.8656 12.4456C49.9331 11.6317 49.6409 10.8336 49.0633 10.2563L46.5955 7.78893C45.9965 7.18988 45.1685 6.89599 44.3294 6.99377L41.9095 7.26251C41.5702 7.29838 41.2498 7.17446 41.0277 6.9194C40.8038 6.66346 40.7227 6.32768 40.8047 5.99824L41.2242 4.32043C41.4592 3.38177 41.1798 2.37301 40.4954 1.68821L39.6186 0.811898C39.0103 0.203554 38.1712 -0.085743 37.32 0.0206789C36.4663 0.125788 35.7229 0.60857 35.241 1.41991L31.5798 9.11237C30.8726 8.69729 30.0732 8.45918 29.2313 8.45918C27.9837 8.45918 26.8114 8.94491 25.9287 9.82724L9.82848 25.9279C8.94582 26.8097 8.46042 27.9825 8.46042 29.23C8.46042 29.8478 8.58106 30.4467 8.80834 31.0015L1.16139 35.4009C0.496604 35.8756 0.0770415 36.6143 0.00955709 37.4281C-0.0579273 38.242 0.234323 39.0401 0.811932 39.6174L3.27965 42.0847ZM23.4331 39.1582C23.0239 36.6042 22.1769 33.9828 20.9378 31.4916C19.3367 28.2959 17.2195 25.5375 14.7867 23.4443L19.8338 18.3971C22.5396 20.6548 24.8329 23.9544 26.3262 27.7985C27.2035 30.0668 27.7337 32.3739 27.9273 34.6641L23.4331 39.1582ZM27.9574 27.1657C26.3805 23.1055 23.9532 19.5979 21.0758 17.1549L25.7114 12.5193C28.4298 14.7105 30.7664 17.9017 32.3281 21.6127C33.2802 23.8702 33.8816 26.1678 34.1423 28.4487L29.5159 33.0752C29.232 31.0966 28.7126 29.1163 27.9574 27.1657ZM36.7818 2.24613C36.9449 1.97444 37.2193 1.79627 37.5337 1.75734C37.8456 1.72234 38.1566 1.82438 38.3814 2.04959L39.2581 2.92502C39.5102 3.1779 39.6136 3.5501 39.5273 3.89616L39.1077 5.57398C38.8872 6.45412 39.1129 7.38763 39.7102 8.07079C40.3066 8.75394 41.197 9.10307 42.1027 9.00135L44.5227 8.73262C44.8346 8.69882 45.137 8.80524 45.3584 9.02618L47.8261 11.4936C48.0424 11.7098 48.1475 11.9965 48.1218 12.3006C48.0969 12.6053 47.9458 12.871 47.7697 13.0017L40.1096 17.4041L38.7584 16.0529L40.356 15.2538C40.7884 15.0375 40.9636 14.5117 40.7474 14.0797C40.5311 13.6478 40.0057 13.4714 39.5733 13.6884L37.454 14.7485L35.663 12.9573L36.7227 10.8374C36.9389 10.4051 36.7637 9.87952 36.3314 9.6634C35.899 9.44727 35.3726 9.62326 35.1573 10.0547L34.3584 11.6528L32.9701 10.2641L36.7818 2.24613ZM29.2315 10.2091C30.0117 10.2091 30.7448 10.5128 31.2959 11.0644L39.3462 19.1149C39.8982 19.6665 40.2015 20.4001 40.2015 21.1798C40.2015 21.9596 39.8982 22.6931 39.3462 23.2447L35.6948 26.8962C35.3542 24.8981 34.7706 22.8994 33.9415 20.9329C32.2969 17.026 29.8343 13.6425 26.9561 11.2745L27.1662 11.0644C27.7182 10.5129 28.4513 10.2091 29.2315 10.2091ZM11.0658 27.1653L13.5443 24.6867C15.8447 26.6384 17.8529 29.241 19.3724 32.2734C20.6419 34.8257 21.4718 37.5175 21.8014 40.1051C20.8558 40.2993 19.8193 40.0494 19.1162 39.3456L11.0659 31.295C10.5139 30.7435 10.2106 30.0099 10.2106 29.2302C10.2106 28.4504 10.5138 27.7168 11.0658 27.1653ZM2.10562 36.8719L9.77324 32.4651C9.79359 32.4862 9.8077 32.5115 9.82848 32.5323L11.1168 33.8207L9.51917 34.6198C9.08681 34.8361 8.91159 35.3619 9.12782 35.7939C9.2816 36.1007 9.59015 36.2775 9.91138 36.2775C10.043 36.2775 10.1763 36.248 10.3019 36.1852L12.4212 35.1251L14.2122 36.9163L13.1525 39.0362C12.9363 39.4685 13.1115 39.9941 13.5438 40.2102C13.6694 40.273 13.8027 40.3025 13.9343 40.3025C14.2557 40.3025 14.565 40.1252 14.7179 39.8189L15.5167 38.2208L16.9051 39.6092L13.0934 47.6271C12.9302 47.8988 12.6559 48.077 12.3415 48.1159C12.0304 48.1531 11.7186 48.0489 11.4938 47.8237L10.6171 46.9482C10.365 46.6954 10.2616 46.3232 10.3479 45.9771L10.7675 44.2993C10.988 43.4192 10.7623 42.4856 10.165 41.8025C9.5686 41.1189 8.67567 40.769 7.77245 40.8719L5.35253 41.1407C5.03895 41.1702 4.73817 41.0676 4.51679 40.8471L2.04907 38.3797C1.83284 38.1635 1.72773 37.8768 1.75343 37.5726C1.77837 37.2683 1.92964 37.0026 2.10562 36.8719ZM49.7718 23.943L49.1984 23.3692C48.7345 22.9056 48.0953 22.6847 47.4417 22.7654C46.7906 22.8457 46.2231 23.2149 45.8463 23.8515L43.5782 28.6164C42.3402 28.0756 40.7942 28.2873 39.8101 29.2707L29.2716 39.8096C28.3552 40.726 28.0951 42.0419 28.4618 43.2003L23.6372 45.9773C23.1296 46.3396 22.8092 46.9041 22.7579 47.5252C22.7066 48.1469 22.9296 48.7561 23.3706 49.197L24.9848 50.8116C25.442 51.2692 26.0734 51.4909 26.716 51.4192L28.2994 51.2432C28.4626 51.2248 28.5694 51.3124 28.6164 51.3662C28.6634 51.4205 28.7369 51.5354 28.6967 51.6973L28.4223 52.7949C28.2429 53.5123 28.4557 54.2826 28.9786 54.8055L29.552 55.3793C29.9536 55.7805 30.4868 55.9992 31.0447 55.9992C31.1319 55.9992 31.2207 55.9941 31.3087 55.9831C31.9599 55.9028 32.5273 55.5336 32.9041 54.897L35.1032 50.277C35.6396 50.623 36.2622 50.8129 36.9159 50.8129C37.8131 50.8129 38.6564 50.4635 39.2914 49.829L49.8299 39.2901C50.8682 38.2518 51.0691 36.7019 50.4604 35.4492L55.1132 32.7712C55.6208 32.4089 55.9412 31.8444 55.9925 31.2233C56.0438 30.6016 55.8208 29.9924 55.3798 29.5515L53.7656 27.9369C53.3084 27.4793 52.6795 27.2576 52.0344 27.3293L50.451 27.5053C50.2878 27.525 50.181 27.4361 50.134 27.3823C50.087 27.328 50.0135 27.2131 50.0538 27.0512L50.3281 25.9536C50.5074 25.2362 50.2947 24.4659 49.7718 23.943ZM41.6344 40.7235C40.6296 38.1383 39.1076 35.8794 37.2958 34.2598L39.9042 31.6513C41.5546 33.047 42.9713 35.028 43.9339 37.3158C44.5255 38.7182 44.9034 40.1456 45.0806 41.565L42.5678 44.0778C42.3669 42.9534 42.063 41.8309 41.6344 40.7235ZM31.3634 54.0711C31.2831 54.2044 31.1601 54.2381 31.0943 54.2463C31.0277 54.2544 30.9003 54.2523 30.7892 54.1416L30.2159 53.5683C30.1253 53.4777 30.0886 53.3439 30.1193 53.2193L30.3945 52.1212C30.5619 51.4488 30.3893 50.7361 29.933 50.2144C29.4776 49.6927 28.7922 49.4253 28.1061 49.5043L26.5219 49.6803C26.4143 49.6897 26.3032 49.6547 26.2229 49.5748L24.6079 47.9597C24.5037 47.8551 24.4968 47.7333 24.5019 47.6697C24.507 47.6065 24.5335 47.4877 24.5814 47.4484L29.3944 44.6824L29.8183 45.1064L29.1478 45.4416C28.7155 45.6578 28.5402 46.1833 28.7565 46.6156C28.9103 46.9224 29.2188 47.0993 29.54 47.0993C29.6716 47.0993 29.8049 47.0698 29.9305 47.007L31.1229 46.4108L31.9873 47.2751L31.3908 48.4677C31.1745 48.9 31.3498 49.4256 31.7821 49.6417C31.9077 49.7045 32.041 49.734 32.1726 49.734C32.4939 49.734 32.8024 49.5572 32.9562 49.2504L33.2917 48.5795L33.7533 49.0409L31.3634 54.0711ZM35.7786 48.5916L30.5089 43.3224C29.8817 42.6948 29.8817 41.6741 30.5089 41.0468L31.9194 39.6363C33.3091 40.8673 34.5318 42.4545 35.4616 44.311C36.2293 45.8541 36.7322 47.4731 36.9676 49.0429C36.5338 49.056 36.0953 48.9084 35.7786 48.5916ZM38.587 48.0586C38.2862 46.5406 37.7591 45.0003 37.0279 43.5296C36.0161 41.5102 34.6943 39.7502 33.174 38.3818L36.0536 35.502C37.6943 36.9411 39.0826 38.9887 40.0024 41.3562C40.549 42.7686 40.883 44.2035 41.0165 45.6292L38.587 48.0586ZM48.5925 38.0528L46.6006 40.0448C46.3655 38.9008 46.0209 37.7594 45.5472 36.6359C44.5025 34.1553 42.9645 31.9829 41.1587 30.4165C41.4477 30.1749 41.8045 30.0367 42.1857 30.0367C42.6155 30.0367 43.0188 30.2037 43.3229 30.508L48.5926 35.7772C49.2198 36.4048 49.2198 37.4255 48.5925 38.0528ZM50.6442 29.2443L52.2284 29.0683C52.336 29.0589 52.4471 29.0939 52.5274 29.1738L54.1424 30.7889C54.2467 30.8935 54.2535 31.0153 54.2484 31.0789C54.2433 31.1421 54.2168 31.2609 54.1689 31.3002L49.3559 34.0662L48.932 33.6422L49.6026 33.307C50.0349 33.0908 50.2102 32.5653 49.9939 32.133C49.7769 31.7002 49.2531 31.5249 48.8199 31.7416L47.6275 32.3378L46.7631 31.4735L47.3595 30.2807C47.5758 29.8483 47.4005 29.3228 46.9682 29.1067C46.5358 28.8901 46.0112 29.0661 45.7941 29.498L45.4586 30.1689L44.997 29.7075L47.3869 24.6774C47.4672 24.5441 47.5902 24.5104 47.656 24.5022C47.7244 24.4932 47.8508 24.4966 47.9611 24.6069L48.5344 25.1802C48.625 25.2708 48.6617 25.4045 48.631 25.5292L48.3558 26.6272C48.1884 27.2997 48.361 28.0124 48.8173 28.5341C49.2736 29.0558 49.9614 29.3241 50.6442 29.2443Z" fill="#D71B4A"/>
</g>
<defs>
<clipPath id="clip0_348_501">
<rect width="56" height="56" fill="white"/>
</clipPath>
</defs>
</svg>
