<svg width="38" height="38" viewBox="0 0 38 38" fill="none" xmlns="http://www.w3.org/2000/svg">
<path d="M31.4688 1.1875H6.53125C6.05883 1.1875 5.60576 1.37517 5.27172 1.70922C4.93767 2.04327 4.75 2.49633 4.75 2.96875V35.0312C4.75 35.5037 4.93767 35.9567 5.27172 36.2908C5.60576 36.6248 6.05883 36.8125 6.53125 36.8125H31.4688C31.9412 36.8125 32.3942 36.6248 32.7283 36.2908C33.0623 35.9567 33.25 35.5037 33.25 35.0312V2.96875C33.25 2.49633 33.0623 2.04327 32.7283 1.70922C32.3942 1.37517 31.9412 1.1875 31.4688 1.1875ZM32.0625 35.0312C32.0625 35.1887 31.9999 35.3397 31.8886 35.4511C31.7772 35.5624 31.6262 35.625 31.4688 35.625H6.53125C6.37378 35.625 6.22276 35.5624 6.11141 35.4511C6.00006 35.3397 5.9375 35.1887 5.9375 35.0312V2.96875C5.9375 2.81128 6.00006 2.66026 6.11141 2.54891C6.22276 2.43756 6.37378 2.375 6.53125 2.375H31.4688C31.6262 2.375 31.7772 2.43756 31.8886 2.54891C31.9999 2.66026 32.0625 2.81128 32.0625 2.96875V35.0312Z" fill="white"/>
<path d="M29.6875 3.5625H8.3125C8.15503 3.5625 8.00401 3.62506 7.89266 3.73641C7.78131 3.84776 7.71875 3.99878 7.71875 4.15625V12.4688C7.71875 12.6262 7.78131 12.7772 7.89266 12.8886C8.00401 12.9999 8.15503 13.0625 8.3125 13.0625H29.6875C29.845 13.0625 29.996 12.9999 30.1073 12.8886C30.2187 12.7772 30.2812 12.6262 30.2812 12.4688V4.15625C30.2812 3.99878 30.2187 3.84776 30.1073 3.73641C29.996 3.62506 29.845 3.5625 29.6875 3.5625ZM29.0938 11.875H8.90625V4.75H29.0938V11.875ZM13.0625 14.25H8.3125C8.15503 14.25 8.00401 14.3126 7.89266 14.4239C7.78131 14.5353 7.71875 14.6863 7.71875 14.8438V19.5938C7.71875 19.7512 7.78131 19.9022 7.89266 20.0136C8.00401 20.1249 8.15503 20.1875 8.3125 20.1875H13.0625C13.22 20.1875 13.371 20.1249 13.4823 20.0136C13.5937 19.9022 13.6562 19.7512 13.6562 19.5938V14.8438C13.6562 14.6863 13.5937 14.5353 13.4823 14.4239C13.371 14.3126 13.22 14.25 13.0625 14.25ZM12.4688 19H8.90625V15.4375H12.4688V19ZM21.375 14.25H16.625C16.4675 14.25 16.3165 14.3126 16.2052 14.4239C16.0938 14.5353 16.0312 14.6863 16.0312 14.8438V19.5938C16.0312 19.7512 16.0938 19.9022 16.2052 20.0136C16.3165 20.1249 16.4675 20.1875 16.625 20.1875H21.375C21.5325 20.1875 21.6835 20.1249 21.7948 20.0136C21.9062 19.9022 21.9688 19.7512 21.9688 19.5938V14.8438C21.9688 14.6863 21.9062 14.5353 21.7948 14.4239C21.6835 14.3126 21.5325 14.25 21.375 14.25ZM20.7812 19H17.2188V15.4375H20.7812V19ZM29.6875 14.25H24.9375C24.78 14.25 24.629 14.3126 24.5177 14.4239C24.4063 14.5353 24.3438 14.6863 24.3438 14.8438V19.5938C24.3438 19.7512 24.4063 19.9022 24.5177 20.0136C24.629 20.1249 24.78 20.1875 24.9375 20.1875H29.6875C29.845 20.1875 29.996 20.1249 30.1073 20.0136C30.2187 19.9022 30.2812 19.7512 30.2812 19.5938V14.8438C30.2812 14.6863 30.2187 14.5353 30.1073 14.4239C29.996 14.3126 29.845 14.25 29.6875 14.25ZM29.0938 19H25.5312V15.4375H29.0938V19ZM13.0625 21.375H8.3125C8.15503 21.375 8.00401 21.4376 7.89266 21.5489C7.78131 21.6603 7.71875 21.8113 7.71875 21.9688V26.7188C7.71875 26.8762 7.78131 27.0272 7.89266 27.1386C8.00401 27.2499 8.15503 27.3125 8.3125 27.3125H13.0625C13.22 27.3125 13.371 27.2499 13.4823 27.1386C13.5937 27.0272 13.6562 26.8762 13.6562 26.7188V21.9688C13.6562 21.8113 13.5937 21.6603 13.4823 21.5489C13.371 21.4376 13.22 21.375 13.0625 21.375ZM12.4688 26.125H8.90625V22.5625H12.4688V26.125ZM21.375 21.375H16.625C16.4675 21.375 16.3165 21.4376 16.2052 21.5489C16.0938 21.6603 16.0312 21.8113 16.0312 21.9688V26.7188C16.0312 26.8762 16.0938 27.0272 16.2052 27.1386C16.3165 27.2499 16.4675 27.3125 16.625 27.3125H21.375C21.5325 27.3125 21.6835 27.2499 21.7948 27.1386C21.9062 27.0272 21.9688 26.8762 21.9688 26.7188V21.9688C21.9688 21.8113 21.9062 21.6603 21.7948 21.5489C21.6835 21.4376 21.5325 21.375 21.375 21.375ZM20.7812 26.125H17.2188V22.5625H20.7812V26.125ZM29.6875 21.375H24.9375C24.78 21.375 24.629 21.4376 24.5177 21.5489C24.4063 21.6603 24.3438 21.8113 24.3438 21.9688V26.7188C24.3438 26.8762 24.4063 27.0272 24.5177 27.1386C24.629 27.2499 24.78 27.3125 24.9375 27.3125H29.6875C29.845 27.3125 29.996 27.2499 30.1073 27.1386C30.2187 27.0272 30.2812 26.8762 30.2812 26.7188V21.9688C30.2812 21.8113 30.2187 21.6603 30.1073 21.5489C29.996 21.4376 29.845 21.375 29.6875 21.375ZM29.0938 26.125H25.5312V22.5625H29.0938V26.125ZM13.0625 28.5H8.3125C8.15503 28.5 8.00401 28.5626 7.89266 28.6739C7.78131 28.7853 7.71875 28.9363 7.71875 29.0938V33.8438C7.71875 34.0012 7.78131 34.1522 7.89266 34.2636C8.00401 34.3749 8.15503 34.4375 8.3125 34.4375H13.0625C13.22 34.4375 13.371 34.3749 13.4823 34.2636C13.5937 34.1522 13.6562 34.0012 13.6562 33.8438V29.0938C13.6562 28.9363 13.5937 28.7853 13.4823 28.6739C13.371 28.5626 13.22 28.5 13.0625 28.5ZM12.4688 33.25H8.90625V29.6875H12.4688V33.25ZM21.375 28.5H16.625C16.4675 28.5 16.3165 28.5626 16.2052 28.6739C16.0938 28.7853 16.0312 28.9363 16.0312 29.0938V33.8438C16.0312 34.0012 16.0938 34.1522 16.2052 34.2636C16.3165 34.3749 16.4675 34.4375 16.625 34.4375H21.375C21.5325 34.4375 21.6835 34.3749 21.7948 34.2636C21.9062 34.1522 21.9688 34.0012 21.9688 33.8438V29.0938C21.9688 28.9363 21.9062 28.7853 21.7948 28.6739C21.6835 28.5626 21.5325 28.5 21.375 28.5ZM20.7812 33.25H17.2188V29.6875H20.7812V33.25ZM29.6875 28.5H24.9375C24.78 28.5 24.629 28.5626 24.5177 28.6739C24.4063 28.7853 24.3438 28.9363 24.3438 29.0938V33.8438C24.3438 34.0012 24.4063 34.1522 24.5177 34.2636C24.629 34.3749 24.78 34.4375 24.9375 34.4375H29.6875C29.845 34.4375 29.996 34.3749 30.1073 34.2636C30.2187 34.1522 30.2812 34.0012 30.2812 33.8438V29.0938C30.2812 28.9363 30.2187 28.7853 30.1073 28.6739C29.996 28.5626 29.845 28.5 29.6875 28.5ZM29.0938 33.25H25.5312V29.6875H29.0938V33.25Z" fill="white"/>
<path d="M20.7812 9.5H19.5938V10.6875H20.7812V9.5Z" fill="white"/>
<path d="M23.1562 9.5H21.9688V10.6875H23.1562V9.5Z" fill="white"/>
<path d="M25.5312 9.5H24.3438V10.6875H25.5312V9.5Z" fill="white"/>
<path d="M27.9062 9.5H26.7188V10.6875H27.9062V9.5Z" fill="white"/>
</svg>
