<svg width="44" height="44" viewBox="0 0 44 44" fill="none" xmlns="http://www.w3.org/2000/svg">
<path fill-rule="evenodd" clip-rule="evenodd" d="M8.41255 6C7.39322 6 6.51322 6.62822 6.13922 7.51556L6.127 7.55222C6.07322 7.68667 6.02556 7.82478 5.99622 7.969C5.96253 8.13266 5.94573 8.29935 5.94611 8.46644V16.3864C4.19956 17.0415 2.69449 18.2139 1.63198 19.7471C0.569472 21.2802 0.000122526 23.1011 0 24.9664C0 30.0167 4.07855 34.1331 9.14222 34.1331C11.4515 34.1323 13.6752 33.2592 15.3682 31.6887H37.7239C39.0683 31.6887 40.1683 30.5874 40.1683 29.2442V8.46644C40.1683 7.122 39.0683 6.022 37.7239 6.022H34.4225C34.3516 6.01467 34.2832 6 34.2098 6H8.41255ZM8.39055 7.24422H34.3198C34.9627 7.30044 35.454 7.80644 35.454 8.46644V14.525C35.2426 14.5446 35.0483 14.5776 34.8124 14.5776H28.7318C26.3729 14.5776 24.454 16.4964 24.454 18.8553C24.454 21.2142 26.3729 23.1331 28.7318 23.1331H34.8429H34.8478C35.0678 23.1307 35.2512 23.0964 35.454 23.0806V29.2039C35.454 29.903 34.9102 30.4444 34.2098 30.4444H16.4939C17.6872 28.8674 18.3334 26.9441 18.3346 24.9664C18.3346 24.8841 18.3179 24.8026 18.2857 24.7269H18.2844C18.1476 19.7916 14.1203 15.8022 9.14344 15.8022V15.7998C8.46511 15.7998 7.80511 15.878 7.16956 16.0198V8.46644C7.16725 8.3053 7.19729 8.14534 7.2579 7.99601C7.3185 7.84668 7.40844 7.71102 7.5224 7.59707C7.63636 7.48311 7.77201 7.39317 7.92134 7.33256C8.07067 7.27196 8.23064 7.24192 8.39178 7.24422H8.39055ZM36.3377 7.24422H37.7239C38.412 7.24422 38.9461 7.77833 38.9461 8.46644V13.6731C38.6723 13.898 37.2214 14.1192 36.6763 14.2928V8.46644C36.6763 8.02033 36.5467 7.606 36.3377 7.24422ZM38.9461 15.0396V20.9796C38.4364 21.4147 36.4245 21.8987 34.8429 21.9109H28.7318C28.3298 21.9135 27.9313 21.8362 27.5594 21.6836C27.1876 21.531 26.8497 21.306 26.5654 21.0217C26.2812 20.7375 26.0562 20.3996 25.9036 20.0277C25.7509 19.6558 25.6737 19.2573 25.6763 18.8553C25.6763 17.1516 27.028 15.7998 28.7318 15.7998H34.8124C36.1568 15.7998 37.1163 15.4624 38.9461 15.0396ZM9.14222 17.022C13.5447 17.022 17.1111 20.5774 17.1111 24.9664C17.1111 29.3567 13.5447 32.9109 9.14222 32.9109C8.09968 32.9123 7.06714 32.7077 6.10399 32.3086C5.14083 31.9096 4.26607 31.3241 3.53002 30.5858C2.79397 29.8475 2.21116 28.9709 1.8151 28.0065C1.41904 27.0421 1.21755 26.009 1.22222 24.9664C1.22222 20.5726 4.73855 17.022 9.14222 17.022ZM28.8345 17.022C27.7724 17.022 26.8985 17.8983 26.8985 18.9604C26.8985 20.0213 27.7724 20.8964 28.8345 20.8964C29.3469 20.8939 29.8376 20.689 30.1997 20.3264C30.5619 19.9638 30.7661 19.4729 30.768 18.9604C30.768 17.8971 29.8966 17.022 28.8345 17.022ZM28.8345 18.2442C29.2354 18.2442 29.5458 18.5583 29.5458 18.9604C29.5473 19.0544 29.5299 19.1477 29.4947 19.2348C29.4595 19.3219 29.4072 19.401 29.3409 19.4676C29.2746 19.5341 29.1956 19.5867 29.1086 19.6222C29.0216 19.6577 28.9284 19.6754 28.8345 19.6742C28.7404 19.6754 28.6471 19.6577 28.56 19.6222C28.4729 19.5868 28.3937 19.5342 28.3272 19.4677C28.2607 19.4012 28.2082 19.3221 28.1727 19.2349C28.1372 19.1478 28.1196 19.0545 28.1207 18.9604C28.1207 18.5571 28.4336 18.2442 28.8345 18.2442ZM38.9461 22.4462V29.2442C38.9461 29.9311 38.412 30.4664 37.7239 30.4664H36.3133C36.5382 30.0949 36.6763 29.6659 36.6763 29.2027V22.8911C37.0994 22.7897 38.5571 22.6413 38.9461 22.4462Z" fill="white"/>
<g clip-path="url(#clip0_317_928)">
<path d="M6.60742 28.7969H11.2289" stroke="white" stroke-linecap="round" stroke-linejoin="round"/>
<path d="M8.28798 30.8993V21.6562H11.439C12.1633 21.6562 12.8579 21.944 13.3701 22.4561C13.8822 22.9683 14.1699 23.6629 14.1699 24.3872C14.1699 25.1114 13.8822 25.806 13.3701 26.3182C12.8579 26.8303 12.1633 27.1181 11.439 27.1181H6.60742" stroke="white" stroke-linecap="round" stroke-linejoin="round"/>
</g>
<defs>
<clipPath id="clip0_317_928">
<rect width="13.4444" height="13.4444" fill="white" transform="translate(3.66699 19.5547)"/>
</clipPath>
</defs>
</svg>
