<svg width="34" height="34" viewBox="0 0 34 34" fill="none" xmlns="http://www.w3.org/2000/svg">
<path d="M33.3197 13.5997V4.07969H27.8797V0.679688H26.5197V4.07969H7.47969V0.679688H6.11969V4.07969H0.679688V33.3197H33.3197V13.5997ZM2.03969 5.43969H6.11969V8.83969H7.47969V5.43969H26.5197V8.83969H27.8797V5.43969H31.9597V12.2397H2.03969V5.43969ZM2.03969 31.9597V13.5997H31.9597V31.9597H2.03969Z" fill="white"/>
<path d="M4 30.6H29.84V17H4V30.6ZM5.36 26.52H8.08V29.24H5.36V26.52ZM24.4 25.16H21.68V22.44H24.4V25.16ZM25.76 22.44H28.48V25.16H25.76V22.44ZM13.52 26.52H16.24V29.24H13.52V26.52ZM12.16 29.24H9.44V26.52H12.16V29.24ZM16.24 25.16H13.52V22.44H16.24V25.16ZM17.6 22.44H20.32V25.16H17.6V22.44ZM17.6 26.52H20.32V29.24H17.6V26.52ZM21.68 26.52H24.4V29.24H21.68V26.52ZM21.68 21.08V18.36H24.4V21.08H21.68ZM20.32 21.08H17.6V18.36H20.32V21.08ZM16.24 21.08H13.52V18.36H16.24V21.08ZM12.16 21.08H9.44V18.36H12.16V21.08ZM12.16 22.44V25.16H9.44V22.44H12.16ZM8.08 25.16H5.36V22.44H8.08V25.16ZM25.76 29.24V26.52H28.48V29.24H25.76ZM28.48 21.08H25.76V18.36H28.48V21.08ZM8.08 18.36V21.08H5.36V18.36H8.08Z" fill="white"/>
</svg>
