<svg width="48" height="48" viewBox="0 0 48 48" fill="none" xmlns="http://www.w3.org/2000/svg">
<g clip-path="url(#clip0_317_950)">
<path d="M23.9998 5.75977C13.9198 5.75977 5.75977 13.9198 5.75977 23.9998C5.75977 34.0798 13.9198 42.2398 23.9998 42.2398C34.0798 42.2398 42.2398 34.0798 42.2398 23.9998C42.2398 13.9198 34.0798 5.75977 23.9998 5.75977ZM24.9598 40.2718V39.3118C24.9598 38.7838 24.5278 38.3518 23.9998 38.3518C23.4718 38.3518 23.0398 38.7838 23.0398 39.3118V40.2718C14.7838 39.7918 8.20777 33.1678 7.72777 24.9598H8.68777C9.21577 24.9598 9.64777 24.5278 9.64777 23.9998C9.64777 23.4718 9.21577 23.0398 8.68777 23.0398H7.72777C8.20777 14.7838 14.8318 8.20777 23.0398 7.72777V8.68777C23.0398 9.21577 23.4718 9.64777 23.9998 9.64777C24.5278 9.64777 24.9598 9.21577 24.9598 8.68777V7.72777C33.2158 8.20777 39.7918 14.8318 40.2718 23.0398H39.3118C38.7838 23.0398 38.3518 23.4718 38.3518 23.9998C38.3518 24.5278 38.7838 24.9598 39.3118 24.9598H40.2718C39.7918 33.2158 33.2158 39.7918 24.9598 40.2718ZM29.7598 29.7598C29.3758 30.1438 28.7998 30.1438 28.4158 29.7598L23.3278 24.6718C23.3758 24.7198 23.0398 24.4798 23.0398 23.9998V12.4798C23.0398 11.9518 23.4718 11.5198 23.9998 11.5198C24.5278 11.5198 24.9598 11.9518 24.9598 12.4798V23.6158L29.7598 28.4158C30.1438 28.7998 30.1438 29.3758 29.7598 29.7598Z" fill="white"/>
<path d="M721.92 -513.599V294.721H-134.4V-513.599H721.92ZM725.76 -517.439H-138.24V298.561H725.76V-517.439Z" fill="#0000FF"/>
</g>
<defs>
<clipPath id="clip0_317_950">
<rect width="48" height="48" fill="white"/>
</clipPath>
</defs>
</svg>
