<svg width="42" height="42" viewBox="0 0 42 42" fill="none" xmlns="http://www.w3.org/2000/svg">
<path d="M39.2267 35.4548H36.7543V14.0586C36.7543 13.8484 36.6708 13.6468 36.5222 13.4982C36.3736 13.3496 36.172 13.2661 35.9618 13.2661H31.1675C30.9573 13.2661 30.7557 13.3496 30.6071 13.4982C30.4585 13.6468 30.375 13.8484 30.375 14.0586V35.4548H26.9437V18.4646C26.9437 18.2544 26.8602 18.0529 26.7116 17.9043C26.563 17.7557 26.3614 17.6722 26.1513 17.6722H21.3965C21.1864 17.6722 20.9848 17.7557 20.8362 17.9043C20.6876 18.0529 20.6041 18.2544 20.6041 18.4646V35.4548H17.1965V24.4556C17.1965 24.2454 17.113 24.0438 16.9644 23.8952C16.8158 23.7466 16.6143 23.6631 16.4041 23.6631H11.6494C11.4392 23.6631 11.2376 23.7466 11.089 23.8952C10.9404 24.0438 10.8569 24.2454 10.8569 24.4556V35.4548H8.24975V8.77292C8.24975 8.56275 8.16626 8.36119 8.01764 8.21257C7.86903 8.06396 7.66747 7.98047 7.45729 7.98047C7.24712 7.98047 7.04556 8.06396 6.89695 8.21257C6.74833 8.36119 6.66484 8.56275 6.66484 8.77292V36.2473C6.66484 36.4574 6.74833 36.659 6.89695 36.8076C7.04556 36.9562 7.24712 37.0397 7.45729 37.0397H11.5305H11.6097H16.3645H16.4437H21.2777H21.3569H26.1116H26.1909H31.0328H31.1041H35.8984H35.9697H39.1396C39.3497 37.0397 39.5513 36.9562 39.6999 36.8076C39.8485 36.659 39.932 36.4574 39.932 36.2473C39.932 36.0371 39.8485 35.8355 39.6999 35.6869C39.5513 35.5383 39.3497 35.4548 39.1396 35.4548H39.2267ZM31.9599 14.851H35.1694V35.4548H31.9599V14.851ZM22.189 19.2571H25.3588V35.4548H22.189V19.2571ZM12.4022 25.248H15.572V35.4548H12.4022V25.248ZM2.7739 11.8001H4.20031C4.41048 11.8001 4.61205 11.7166 4.76066 11.568C4.90928 11.4194 4.99277 11.2178 4.99277 11.0076C4.99277 10.7975 4.90928 10.5959 4.76066 10.4473C4.61205 10.2987 4.41048 10.2152 4.20031 10.2152H2.7739C2.56373 10.2152 2.36216 10.2987 2.21355 10.4473C2.06494 10.5959 1.98145 10.7975 1.98145 11.0076C1.98145 11.2178 2.06494 11.4194 2.21355 11.568C2.36216 11.7166 2.56373 11.8001 2.7739 11.8001ZM2.7739 16.5469H4.20031C4.41048 16.5469 4.61205 16.4634 4.76066 16.3148C4.90928 16.1662 4.99277 15.9646 4.99277 15.7544C4.99277 15.5443 4.90928 15.3427 4.76066 15.1941C4.61205 15.0455 4.41048 14.962 4.20031 14.962H2.7739C2.56373 14.962 2.36216 15.0455 2.21355 15.1941C2.06494 15.3427 1.98145 15.5443 1.98145 15.7544C1.98145 15.9646 2.06494 16.1662 2.21355 16.3148C2.36216 16.4634 2.56373 16.5469 2.7739 16.5469ZM2.7739 21.2858H4.20031C4.41048 21.2858 4.61205 21.2023 4.76066 21.0536C4.90928 20.905 4.99277 20.7035 4.99277 20.4933C4.99277 20.2831 4.90928 20.0816 4.76066 19.933C4.61205 19.7843 4.41048 19.7008 4.20031 19.7008H2.7739C2.56373 19.7008 2.36216 19.7843 2.21355 19.933C2.06494 20.0816 1.98145 20.2831 1.98145 20.4933C1.98145 20.7035 2.06494 20.905 2.21355 21.0536C2.36216 21.2023 2.56373 21.2858 2.7739 21.2858ZM2.7739 26.0325H4.20031C4.41048 26.0325 4.61205 25.9491 4.76066 25.8004C4.90928 25.6518 4.99277 25.4503 4.99277 25.2401C4.99277 25.0299 4.90928 24.8284 4.76066 24.6797C4.61205 24.5311 4.41048 24.4476 4.20031 24.4476H2.7739C2.56373 24.4476 2.36216 24.5311 2.21355 24.6797C2.06494 24.8284 1.98145 25.0299 1.98145 25.2401C1.98145 25.4503 2.06494 25.6518 2.21355 25.8004C2.36216 25.9491 2.56373 26.0325 2.7739 26.0325ZM2.7739 30.7793H4.20031C4.41048 30.7793 4.61205 30.6958 4.76066 30.5472C4.90928 30.3986 4.99277 30.1971 4.99277 29.9869C4.99277 29.7767 4.90928 29.5751 4.76066 29.4265C4.61205 29.2779 4.41048 29.1944 4.20031 29.1944H2.7739C2.56373 29.1944 2.36216 29.2779 2.21355 29.4265C2.06494 29.5751 1.98145 29.7767 1.98145 29.9869C1.98145 30.1971 2.06494 30.3986 2.21355 30.5472C2.36216 30.6958 2.56373 30.7793 2.7739 30.7793ZM2.7739 35.5261H4.20031C4.41048 35.5261 4.61205 35.4426 4.76066 35.294C4.90928 35.1454 4.99277 34.9439 4.99277 34.7337C4.99277 34.5235 4.90928 34.3219 4.76066 34.1733C4.61205 34.0247 4.41048 33.9412 4.20031 33.9412H2.7739C2.56373 33.9412 2.36216 34.0247 2.21355 34.1733C2.06494 34.3219 1.98145 34.5235 1.98145 34.7337C1.98145 34.9439 2.06494 35.1454 2.21355 35.294C2.36216 35.4426 2.56373 35.5261 2.7739 35.5261Z" fill="white"/>
<path d="M11.9816 17.338C11.8789 17.3579 11.7811 17.3979 11.694 17.4558C11.6068 17.5137 11.532 17.5882 11.4738 17.6751C11.4156 17.7621 11.3752 17.8597 11.3549 17.9623C11.3346 18.0649 11.3348 18.1706 11.3556 18.2731C11.391 18.4562 11.4899 18.621 11.6348 18.7385C11.7798 18.8559 11.9615 18.9184 12.148 18.915H12.2986C12.7978 18.812 23.8526 16.5376 31.571 8.20102L31.5156 8.938C31.5025 9.14698 31.5727 9.35262 31.7108 9.51002C31.8489 9.66741 32.0437 9.76375 32.2526 9.778H32.308C32.5102 9.77837 32.7049 9.70143 32.8522 9.56295C32.9995 9.42447 33.0883 9.23492 33.1005 9.0331L33.2827 5.79196C33.2915 5.67241 33.2731 5.55241 33.2288 5.44102C33.1845 5.32962 33.1155 5.22973 33.027 5.14886C32.9385 5.06799 32.8328 5.00826 32.7179 4.97415C32.6029 4.94005 32.4818 4.93246 32.3635 4.95196L29.1937 5.47498C29.0896 5.49163 28.9899 5.52862 28.9001 5.58383C28.8103 5.63903 28.7323 5.71138 28.6705 5.79674C28.6087 5.8821 28.5643 5.9788 28.5398 6.08132C28.5154 6.18384 28.5114 6.29016 28.528 6.39423C28.5447 6.49829 28.5817 6.59806 28.6369 6.68784C28.6921 6.77761 28.7644 6.85563 28.8498 6.91744C28.9351 6.97925 29.0318 7.02365 29.1344 7.04809C29.2369 7.07253 29.3432 7.07654 29.4473 7.05989L30.5884 6.87762C23.2265 15.0557 12.1005 17.3222 11.9816 17.338Z" fill="white"/>
</svg>
