<svg width="40" height="40" viewBox="0 0 40 40" fill="none" xmlns="http://www.w3.org/2000/svg">
<g clip-path="url(#clip0_317_894)">
<path d="M37.825 24.875L25 25.9463V24.415C25.0046 23.4728 24.7029 22.5546 24.1404 21.7987C23.5779 21.0428 22.7851 20.49 21.8813 20.2238L12.4275 17.3888C12.3209 16.9917 12.0867 16.6406 11.761 16.3897C11.4353 16.1388 11.0361 16.0018 10.625 16H0.625C0.45924 16 0.300269 16.0659 0.183058 16.1831C0.065848 16.3003 0 16.4592 0 16.625L0 30.375C0 30.5408 0.065848 30.6997 0.183058 30.8169C0.300269 30.9342 0.45924 31 0.625 31H10.625C10.9821 30.9989 11.3314 30.8958 11.6319 30.7029C11.9324 30.5101 12.1715 30.2354 12.3213 29.9113L22.3 32.905C23.6561 33.3141 25.1056 33.2922 26.4488 32.8425L38.625 28.7838C39.0921 28.6293 39.4862 28.3088 39.7327 27.883C39.9792 27.4572 40.0608 26.9558 39.9622 26.4738C39.8635 25.9919 39.5914 25.5629 39.1975 25.2682C38.8036 24.9735 38.3152 24.8336 37.825 24.875ZM7.5 29.75H1.25V17.25H7.5V29.75ZM11.25 29.125C11.25 29.2908 11.1842 29.4497 11.0669 29.5669C10.9497 29.6842 10.7908 29.75 10.625 29.75H8.75V17.25H10.625C10.7908 17.25 10.9497 17.3159 11.0669 17.4331C11.1842 17.5503 11.25 17.7092 11.25 17.875V29.125ZM38.2313 27.5963L26.0538 31.655C24.9548 32.0237 23.7685 32.042 22.6588 31.7075L12.5 28.66V18.715L21.5225 21.4213C22.1678 21.612 22.7337 22.0069 23.1354 22.5468C23.537 23.0866 23.7527 23.7422 23.75 24.415V25.7013L18.3575 23.5438C18.2807 23.51 18.1979 23.492 18.1141 23.4909C18.0302 23.4897 17.947 23.5055 17.8693 23.5372C17.7917 23.569 17.7212 23.616 17.6621 23.6755C17.603 23.7351 17.5565 23.8059 17.5254 23.8838C17.4943 23.9617 17.4791 24.045 17.4809 24.1289C17.4826 24.2128 17.5012 24.2954 17.5356 24.3719C17.57 24.4484 17.6194 24.5172 17.6809 24.5743C17.7425 24.6313 17.8148 24.6753 17.8938 24.7038L24.1438 27.2038H24.16C24.1903 27.2119 24.2213 27.2178 24.2525 27.2213C24.2933 27.2333 24.3351 27.2413 24.3775 27.245C24.385 27.245 24.3913 27.245 24.3988 27.2388C24.4062 27.2325 24.4188 27.2388 24.43 27.2388L37.93 26.1138C38.1156 26.0967 38.301 26.1488 38.4506 26.2598C38.6003 26.3709 38.7038 26.5333 38.7412 26.7159C38.7787 26.8985 38.7475 27.0885 38.6536 27.2495C38.5598 27.4106 38.4098 27.5313 38.2325 27.5888L38.2313 27.5963ZM31.25 21C32.9806 21 34.6723 20.4868 36.1112 19.5254C37.5502 18.5639 38.6717 17.1973 39.334 15.5985C39.9962 13.9996 40.1695 12.2403 39.8319 10.543C39.4943 8.84563 38.6609 7.28653 37.4372 6.06282C36.2135 4.83911 34.6544 4.00575 32.957 3.66813C31.2597 3.33051 29.5004 3.50379 27.9015 4.16606C26.3027 4.82832 24.9361 5.94984 23.9746 7.38877C23.0132 8.8277 22.5 10.5194 22.5 12.25C22.5026 14.5698 23.4254 16.7939 25.0657 18.4343C26.7061 20.0746 28.9302 20.9974 31.25 21ZM31.25 4.75C32.7334 4.75 34.1834 5.18987 35.4168 6.01398C36.6501 6.83809 37.6114 8.00943 38.1791 9.37988C38.7468 10.7503 38.8953 12.2583 38.6059 13.7132C38.3165 15.168 37.6022 16.5044 36.5533 17.5533C35.5044 18.6022 34.168 19.3165 32.7132 19.6059C31.2583 19.8953 29.7503 19.7468 28.3799 19.1791C27.0094 18.6114 25.8381 17.6502 25.014 16.4168C24.1899 15.1834 23.75 13.7334 23.75 12.25C23.7523 10.2616 24.5432 8.35528 25.9493 6.94926C27.3553 5.54324 29.2616 4.75232 31.25 4.75Z" fill="white"/>
<g clip-path="url(#clip1_317_894)">
<path d="M28.3848 14.8555H32.3952" stroke="white" stroke-linecap="round" stroke-linejoin="round"/>
<path d="M29.8431 16.6771V8.65625H32.5775C33.206 8.65625 33.8087 8.90592 34.2532 9.35035C34.6976 9.79477 34.9473 10.3975 34.9473 11.026C34.9473 11.6545 34.6976 12.2573 34.2532 12.7017C33.8087 13.1462 33.206 13.3958 32.5775 13.3958H28.3848" stroke="white" stroke-linecap="round" stroke-linejoin="round"/>
</g>
</g>
<defs>
<clipPath id="clip0_317_894">
<rect width="40" height="40" fill="white"/>
</clipPath>
<clipPath id="clip1_317_894">
<rect width="11.6667" height="11.6667" fill="white" transform="translate(25.833 6.83398)"/>
</clipPath>
</defs>
</svg>
