<svg width="34" height="34" viewBox="0 0 34 34" fill="none" xmlns="http://www.w3.org/2000/svg">
<g clip-path="url(#clip0_317_906)">
<path d="M33.0507 1.31566C32.9776 1.14965 32.8448 1.01683 32.6854 0.950427C32.5991 0.910583 24.0991 -2.66207 17.1065 4.32386C15.7718 5.65863 14.4835 7.23246 13.3015 8.89261L11.6878 8.52074C9.25067 7.95629 6.74052 8.67347 4.96747 10.4399L0.564734 14.8493C-0.604017 16.018 0.146374 18.0036 1.77333 18.1297L7.97567 18.6278C7.70341 19.3516 7.47098 20.0621 7.33817 20.5336C7.21864 20.952 7.23856 21.3836 7.36473 21.7821C6.24247 22.0875 5.21981 22.6453 4.64208 23.2231C3.36708 24.4914 2.23153 30.0496 2.01903 31.152C1.92606 31.6832 2.39755 32.0883 2.84911 31.9821C3.95145 31.7629 9.50966 30.6274 10.778 29.359C11.3823 28.7547 11.9268 27.7188 12.2257 26.6364C12.6507 26.7692 13.0823 26.7692 13.4741 26.6563H13.4807C13.9522 26.5235 14.6429 26.3043 15.38 26.0188L15.878 32.2211C16.0042 33.8481 17.9964 34.5918 19.1585 33.4297L23.5679 29.0203C25.3343 27.2539 26.0581 24.7371 25.487 22.3L25.1151 20.6864C26.7753 19.5043 28.3491 18.2161 29.6839 16.8813C36.6698 9.90199 33.0905 1.40199 33.0507 1.31566ZM1.57411 15.852L5.97684 11.4426C7.40458 10.0149 9.42333 9.44379 11.369 9.90199L12.4382 10.1477C10.8511 12.5317 9.50966 15.0286 8.54012 17.2465L1.88622 16.7153C1.45458 16.6754 1.26864 16.1508 1.57411 15.852ZM9.77528 28.3629C9.1577 28.9805 6.09637 29.8371 3.62606 30.3817C4.16395 27.9047 5.02059 24.85 5.64481 24.2325C6.1827 23.6879 7.23192 23.2164 8.25458 23.0305L10.9772 25.7532C10.9706 25.7797 10.9706 25.8063 10.964 25.8395C10.7647 26.8157 10.28 27.8582 9.77528 28.3629ZM12.3253 25.0891L8.912 21.6758C8.71278 21.4766 8.63309 21.1778 8.70614 20.9121C8.76591 20.7063 8.8788 20.3211 9.02489 19.8895L14.1116 24.9762C13.8061 25.0825 13.4011 25.2086 13.089 25.295C12.8233 25.3746 12.5311 25.295 12.3253 25.0891ZM24.0991 22.6321C24.5507 24.5911 23.9796 26.6032 22.5585 28.0243L18.1491 32.4336C17.8436 32.7391 17.3257 32.5465 17.2858 32.1215L16.7546 25.4676C18.9725 24.5047 21.4694 23.1567 23.8534 21.5696L24.0991 22.6321ZM15.5659 24.425L9.56942 18.4286C11.2628 14.2914 14.4968 8.93246 18.1026 5.3266C22.2198 1.20941 27.6319 0.591833 31.8487 2.14574C32.3468 3.54027 34.3257 10.2407 28.6679 15.8985C25.062 19.5043 19.703 22.7383 15.5659 24.425Z" fill="white"/>
<path d="M20.7585 6.33564C18.8526 8.2415 18.8526 11.3294 20.7585 13.2419C22.6644 15.1478 25.7522 15.1478 27.6647 13.2419C29.5706 11.336 29.5706 8.2415 27.6647 6.33564C25.7522 4.42979 22.6644 4.42979 20.7585 6.33564ZM26.662 12.2392C25.3073 13.5938 23.1159 13.5938 21.7612 12.2392C20.4065 10.8845 20.4065 8.69307 21.7612 7.33838C23.1159 5.98369 25.3073 5.98369 26.662 7.33838C28.0101 8.69307 28.0101 10.8911 26.662 12.2392Z" fill="white"/>
</g>
<defs>
<clipPath id="clip0_317_906">
<rect width="34" height="34" fill="white"/>
</clipPath>
</defs>
</svg>
